<svg width="400" height="820" viewBox="0 0 400 820" fill="none" xmlns="http://www.w3.org/2000/svg">
<rect x="-40" width="440" height="820" fill="url(#paint0_linear)"/>
<path d="M89.72 266C88.7867 266 88.0667 265.747 87.56 265.24C87.0533 264.733 86.8 264.013 86.8 263.08V240.72C86.8 239.787 87.0533 239.067 87.56 238.56C88.0667 238.053 88.7867 237.8 89.72 237.8H103.88C105.853 237.8 106.84 238.6 106.84 240.2C106.84 241.827 105.853 242.64 103.88 242.64H92.88V249.24H103.08C105.053 249.24 106.04 250.053 106.04 251.68C106.04 253.28 105.053 254.08 103.08 254.08H92.88V261.16H103.88C105.853 261.16 106.84 261.973 106.84 263.6C106.84 265.2 105.853 266 103.88 266H89.72ZM117.471 266.32C115.844 266.32 114.431 266.187 113.231 265.92C112.031 265.653 110.978 265.227 110.071 264.64C109.671 264.4 109.364 264.08 109.151 263.68C108.938 263.28 108.831 262.827 108.831 262.32C108.831 261.707 109.004 261.2 109.351 260.8C109.698 260.373 110.124 260.16 110.631 260.16C110.978 260.16 111.324 260.227 111.671 260.36C112.018 260.467 112.378 260.6 112.751 260.76C113.498 261.107 114.231 261.387 114.951 261.6C115.671 261.787 116.564 261.88 117.631 261.88C118.564 261.88 119.284 261.733 119.791 261.44C120.324 261.147 120.591 260.747 120.591 260.24C120.591 259.867 120.471 259.573 120.231 259.36C120.018 259.12 119.604 258.907 118.991 258.72C118.378 258.533 117.404 258.307 116.071 258.04C113.698 257.587 111.991 256.907 110.951 256C109.911 255.093 109.391 253.827 109.391 252.2C109.391 251 109.751 249.92 110.471 248.96C111.218 248 112.231 247.253 113.511 246.72C114.791 246.16 116.231 245.88 117.831 245.88C118.978 245.88 120.098 246.027 121.191 246.32C122.284 246.613 123.258 247.027 124.111 247.56C124.938 248.067 125.351 248.813 125.351 249.8C125.351 250.44 125.178 250.973 124.831 251.4C124.484 251.827 124.058 252.04 123.551 252.04C122.938 252.04 122.204 251.8 121.351 251.32C120.684 250.973 120.071 250.72 119.511 250.56C118.978 250.373 118.338 250.28 117.591 250.28C116.764 250.28 116.111 250.44 115.631 250.76C115.151 251.053 114.911 251.467 114.911 252C114.911 252.56 115.191 252.987 115.751 253.28C116.311 253.573 117.391 253.867 118.991 254.16C120.778 254.507 122.178 254.933 123.191 255.44C124.204 255.92 124.938 256.533 125.391 257.28C125.844 258.027 126.071 258.973 126.071 260.12C126.071 262.013 125.284 263.52 123.711 264.64C122.164 265.76 120.084 266.32 117.471 266.32ZM138.603 266.32C136.576 266.32 134.803 265.907 133.283 265.08C131.763 264.253 130.59 263.08 129.763 261.56C128.963 260.04 128.563 258.253 128.563 256.2C128.563 254.147 128.99 252.347 129.843 250.8C130.723 249.227 131.95 248.013 133.523 247.16C135.096 246.307 136.91 245.88 138.963 245.88C140.03 245.88 141.096 246.027 142.163 246.32C143.256 246.613 144.23 247.027 145.083 247.56C145.91 248.067 146.323 248.813 146.323 249.8C146.323 250.493 146.163 251.067 145.843 251.52C145.523 251.947 145.096 252.16 144.563 252.16C144.216 252.16 143.883 252.107 143.563 252C143.27 251.867 142.87 251.68 142.363 251.44C141.803 251.147 141.296 250.92 140.843 250.76C140.416 250.6 139.923 250.52 139.363 250.52C137.87 250.52 136.723 251 135.923 251.96C135.15 252.893 134.763 254.267 134.763 256.08C134.763 257.893 135.15 259.28 135.923 260.24C136.723 261.2 137.87 261.68 139.363 261.68C139.923 261.68 140.416 261.613 140.843 261.48C141.27 261.32 141.79 261.08 142.403 260.76C142.91 260.52 143.31 260.347 143.603 260.24C143.896 260.107 144.216 260.04 144.563 260.04C145.07 260.04 145.483 260.267 145.803 260.72C146.15 261.173 146.323 261.747 146.323 262.44C146.323 263.427 145.91 264.16 145.083 264.64C144.23 265.173 143.243 265.587 142.123 265.88C141.003 266.173 139.83 266.32 138.603 266.32ZM158.729 266.32C156.649 266.32 154.822 265.907 153.249 265.08C151.675 264.227 150.462 263.04 149.609 261.52C148.755 259.973 148.329 258.16 148.329 256.08C148.329 254 148.755 252.2 149.609 250.68C150.462 249.133 151.675 247.947 153.249 247.12C154.822 246.293 156.649 245.88 158.729 245.88C160.809 245.88 162.635 246.293 164.209 247.12C165.782 247.947 166.995 249.133 167.849 250.68C168.702 252.2 169.129 254 169.129 256.08C169.129 258.16 168.702 259.973 167.849 261.52C166.995 263.04 165.782 264.227 164.209 265.08C162.635 265.907 160.809 266.32 158.729 266.32ZM158.729 261.72C161.662 261.72 163.129 259.84 163.129 256.08C163.129 254.187 162.742 252.773 161.969 251.84C161.222 250.907 160.142 250.44 158.729 250.44C155.795 250.44 154.329 252.32 154.329 256.08C154.329 259.84 155.795 261.72 158.729 261.72ZM175.844 266.24C174.964 266.24 174.231 266 173.644 265.52C173.084 265.04 172.804 264.333 172.804 263.4V240.44C172.804 239.507 173.084 238.8 173.644 238.32C174.231 237.84 174.964 237.6 175.844 237.6C176.698 237.6 177.404 237.84 177.964 238.32C178.551 238.8 178.844 239.507 178.844 240.44V263.4C178.844 264.333 178.551 265.04 177.964 265.52C177.404 266 176.698 266.24 175.844 266.24ZM195.908 245.88C200.468 245.88 202.748 248.64 202.748 254.16V263.4C202.748 264.28 202.468 264.973 201.908 265.48C201.375 265.987 200.642 266.24 199.708 266.24C198.775 266.24 198.042 265.987 197.508 265.48C196.975 264.973 196.708 264.28 196.708 263.4V254.08C196.708 252.907 196.455 252.04 195.948 251.48C195.468 250.893 194.708 250.6 193.668 250.6C192.415 250.6 191.402 251 190.628 251.8C189.882 252.6 189.508 253.667 189.508 255V263.4C189.508 264.28 189.242 264.973 188.708 265.48C188.175 265.987 187.442 266.24 186.508 266.24C185.575 266.24 184.828 265.987 184.268 265.48C183.735 264.973 183.468 264.28 183.468 263.4V240.36C183.468 239.533 183.748 238.867 184.308 238.36C184.895 237.853 185.655 237.6 186.588 237.6C187.468 237.6 188.175 237.84 188.708 238.32C189.242 238.8 189.508 239.44 189.508 240.24V248.96C190.202 247.947 191.095 247.187 192.188 246.68C193.282 246.147 194.522 245.88 195.908 245.88ZM216.097 245.88C218.977 245.88 221.111 246.587 222.497 248C223.884 249.387 224.577 251.52 224.577 254.4V263.44C224.577 264.32 224.324 265.013 223.817 265.52C223.311 266 222.604 266.24 221.697 266.24C220.844 266.24 220.151 265.987 219.617 265.48C219.111 264.947 218.857 264.267 218.857 263.44V263.16C218.457 264.147 217.791 264.92 216.857 265.48C215.924 266.04 214.831 266.32 213.577 266.32C212.244 266.32 211.031 266.053 209.937 265.52C208.871 264.987 208.017 264.24 207.377 263.28C206.764 262.32 206.457 261.253 206.457 260.08C206.457 258.64 206.817 257.507 207.537 256.68C208.284 255.853 209.471 255.253 211.097 254.88C212.724 254.507 214.951 254.32 217.777 254.32H218.817V253.6C218.817 252.48 218.564 251.667 218.057 251.16C217.577 250.653 216.764 250.4 215.617 250.4C214.471 250.4 212.817 250.8 210.657 251.6C210.044 251.893 209.524 252.04 209.097 252.04C208.511 252.04 208.044 251.84 207.697 251.44C207.351 251.013 207.177 250.467 207.177 249.8C207.177 249.267 207.297 248.827 207.537 248.48C207.777 248.133 208.164 247.813 208.697 247.52C209.631 247.013 210.764 246.613 212.097 246.32C213.457 246.027 214.791 245.88 216.097 245.88ZM214.897 262.16C216.071 262.16 217.017 261.773 217.737 261C218.457 260.2 218.817 259.173 218.817 257.92V257.24H218.137C215.977 257.24 214.457 257.413 213.577 257.76C212.724 258.107 212.297 258.733 212.297 259.64C212.297 260.387 212.537 261 213.017 261.48C213.524 261.933 214.151 262.16 214.897 262.16ZM102.2 287.96C103.133 287.96 103.867 288.213 104.4 288.72C104.96 289.227 105.24 289.92 105.24 290.8V305.48C105.24 306.307 104.947 306.973 104.36 307.48C103.8 307.987 103.067 308.24 102.16 308.24C101.307 308.24 100.627 308 100.12 307.52C99.6133 307.04 99.36 306.4 99.36 305.6V305.2C98.7467 306.213 97.9333 306.987 96.92 307.52C95.9333 308.053 94.8133 308.32 93.56 308.32C91.08 308.32 89.2267 307.64 88 306.28C86.8 304.893 86.2 302.813 86.2 300.04V290.8C86.2 289.92 86.4667 289.227 87 288.72C87.56 288.213 88.3067 287.96 89.24 287.96C90.1733 287.96 90.9067 288.213 91.44 288.72C91.9733 289.227 92.24 289.92 92.24 290.8V300.16C92.24 301.333 92.48 302.2 92.96 302.76C93.4667 303.32 94.2267 303.6 95.24 303.6C96.4133 303.6 97.36 303.2 98.08 302.4C98.8267 301.6 99.2 300.547 99.2 299.24V290.8C99.2 289.92 99.4667 289.227 100 288.72C100.533 288.213 101.267 287.96 102.2 287.96ZM134.075 287.88C136.208 287.88 137.848 288.533 138.995 289.84C140.141 291.12 140.715 293.227 140.715 296.16V305.4C140.715 306.333 140.435 307.04 139.875 307.52C139.315 308 138.595 308.24 137.715 308.24C136.861 308.24 136.141 308 135.555 307.52C134.968 307.04 134.675 306.333 134.675 305.4V296.08C134.675 294.8 134.448 293.907 133.995 293.4C133.568 292.867 132.901 292.6 131.995 292.6C130.875 292.6 129.981 292.987 129.315 293.76C128.648 294.533 128.315 295.613 128.315 297V305.4C128.315 306.333 128.035 307.04 127.475 307.52C126.915 308 126.195 308.24 125.315 308.24C124.461 308.24 123.741 308 123.155 307.52C122.568 307.04 122.275 306.333 122.275 305.4V296.08C122.275 294.8 122.048 293.907 121.595 293.4C121.168 292.867 120.501 292.6 119.595 292.6C118.475 292.6 117.581 292.987 116.915 293.76C116.248 294.533 115.915 295.613 115.915 297V305.4C115.915 306.333 115.621 307.04 115.035 307.52C114.475 308 113.768 308.24 112.915 308.24C112.061 308.24 111.341 308 110.755 307.52C110.168 307.04 109.875 306.333 109.875 305.4V290.72C109.875 289.84 110.168 289.16 110.755 288.68C111.368 288.2 112.101 287.96 112.955 287.96C113.755 287.96 114.421 288.2 114.955 288.68C115.488 289.133 115.755 289.773 115.755 290.6V291C116.395 289.987 117.221 289.213 118.235 288.68C119.275 288.147 120.448 287.88 121.755 287.88C123.168 287.88 124.355 288.173 125.315 288.76C126.301 289.32 127.061 290.24 127.595 291.52C128.208 290.4 129.075 289.52 130.195 288.88C131.341 288.213 132.635 287.88 134.075 287.88ZM165.877 308.32C163.797 308.32 161.971 307.907 160.397 307.08C158.824 306.227 157.611 305.04 156.757 303.52C155.904 301.973 155.477 300.16 155.477 298.08C155.477 296 155.904 294.2 156.757 292.68C157.611 291.133 158.824 289.947 160.397 289.12C161.971 288.293 163.797 287.88 165.877 287.88C167.957 287.88 169.784 288.293 171.357 289.12C172.931 289.947 174.144 291.133 174.997 292.68C175.851 294.2 176.277 296 176.277 298.08C176.277 300.16 175.851 301.973 174.997 303.52C174.144 305.04 172.931 306.227 171.357 307.08C169.784 307.907 167.957 308.32 165.877 308.32ZM165.877 303.72C168.811 303.72 170.277 301.84 170.277 298.08C170.277 296.187 169.891 294.773 169.117 293.84C168.371 292.907 167.291 292.44 165.877 292.44C162.944 292.44 161.477 294.32 161.477 298.08C161.477 301.84 162.944 303.72 165.877 303.72ZM191.673 287.96C192.473 287.907 193.099 288.093 193.553 288.52C194.033 288.92 194.273 289.533 194.273 290.36C194.273 291.24 194.059 291.893 193.633 292.32C193.206 292.747 192.446 293.013 191.353 293.12L190.153 293.24C188.686 293.4 187.619 293.88 186.953 294.68C186.313 295.48 185.993 296.507 185.993 297.76V305.4C185.993 306.333 185.699 307.04 185.113 307.52C184.553 308 183.846 308.24 182.993 308.24C182.113 308.24 181.379 308 180.793 307.52C180.233 307.04 179.953 306.333 179.953 305.4V290.72C179.953 289.84 180.246 289.16 180.833 288.68C181.419 288.2 182.126 287.96 182.953 287.96C183.753 287.96 184.419 288.2 184.953 288.68C185.486 289.133 185.753 289.773 185.753 290.6V291.68C186.233 290.533 186.953 289.653 187.913 289.04C188.899 288.427 189.966 288.08 191.113 288L191.673 287.96ZM208.641 284.2C207.547 284.28 206.761 284.613 206.281 285.2C205.801 285.787 205.561 286.613 205.561 287.68V288.36H208.361C210.174 288.36 211.081 289.12 211.081 290.64C211.081 292.133 210.174 292.88 208.361 292.88H205.561V305.36C205.561 306.293 205.267 307 204.681 307.48C204.121 307.96 203.414 308.2 202.561 308.2C201.681 308.2 200.947 307.96 200.361 307.48C199.801 307 199.521 306.293 199.521 305.36V292.88H197.921C196.134 292.88 195.241 292.133 195.241 290.64C195.241 289.12 196.134 288.36 197.921 288.36H199.521C199.521 285.8 200.227 283.787 201.641 282.32C203.054 280.853 205.001 280.027 207.481 279.84L208.521 279.76L209.241 279.72C211.081 279.72 212.001 280.427 212.001 281.84C212.001 283.227 211.227 283.987 209.681 284.12L208.641 284.2ZM221.644 287.88C224.524 287.88 226.658 288.587 228.044 290C229.431 291.387 230.124 293.52 230.124 296.4V305.44C230.124 306.32 229.871 307.013 229.364 307.52C228.858 308 228.151 308.24 227.244 308.24C226.391 308.24 225.698 307.987 225.164 307.48C224.658 306.947 224.404 306.267 224.404 305.44V305.16C224.004 306.147 223.338 306.92 222.404 307.48C221.471 308.04 220.378 308.32 219.124 308.32C217.791 308.32 216.578 308.053 215.484 307.52C214.418 306.987 213.564 306.24 212.924 305.28C212.311 304.32 212.004 303.253 212.004 302.08C212.004 300.64 212.364 299.507 213.084 298.68C213.831 297.853 215.018 297.253 216.644 296.88C218.271 296.507 220.498 296.32 223.324 296.32H224.364V295.6C224.364 294.48 224.111 293.667 223.604 293.16C223.124 292.653 222.311 292.4 221.164 292.4C220.018 292.4 218.364 292.8 216.204 293.6C215.591 293.893 215.071 294.04 214.644 294.04C214.058 294.04 213.591 293.84 213.244 293.44C212.898 293.013 212.724 292.467 212.724 291.8C212.724 291.267 212.844 290.827 213.084 290.48C213.324 290.133 213.711 289.813 214.244 289.52C215.178 289.013 216.311 288.613 217.644 288.32C219.004 288.027 220.338 287.88 221.644 287.88ZM220.444 304.16C221.618 304.16 222.564 303.773 223.284 303C224.004 302.2 224.364 301.173 224.364 299.92V299.24H223.684C221.524 299.24 220.004 299.413 219.124 299.76C218.271 300.107 217.844 300.733 217.844 301.64C217.844 302.387 218.084 303 218.564 303.48C219.071 303.933 219.698 304.16 220.444 304.16ZM246.96 287.88C249.307 287.88 251.054 288.573 252.2 289.96C253.347 291.32 253.92 293.387 253.92 296.16V305.4C253.92 306.28 253.64 306.973 253.08 307.48C252.547 307.987 251.814 308.24 250.88 308.24C249.947 308.24 249.214 307.987 248.68 307.48C248.147 306.973 247.88 306.28 247.88 305.4V296.44C247.88 295.107 247.627 294.133 247.12 293.52C246.64 292.907 245.88 292.6 244.84 292.6C243.587 292.6 242.574 293 241.8 293.8C241.054 294.6 240.68 295.667 240.68 297V305.4C240.68 306.28 240.414 306.973 239.88 307.48C239.347 307.987 238.614 308.24 237.68 308.24C236.747 308.24 236 307.987 235.44 307.48C234.907 306.973 234.64 306.28 234.64 305.4V290.72C234.64 289.893 234.92 289.227 235.48 288.72C236.067 288.213 236.814 287.96 237.72 287.96C238.547 287.96 239.214 288.213 239.72 288.72C240.254 289.2 240.52 289.827 240.52 290.6V291.16C241.214 290.093 242.107 289.28 243.2 288.72C244.32 288.16 245.574 287.88 246.96 287.88ZM267.269 287.88C270.149 287.88 272.283 288.587 273.669 290C275.056 291.387 275.749 293.52 275.749 296.4V305.44C275.749 306.32 275.496 307.013 274.989 307.52C274.483 308 273.776 308.24 272.869 308.24C272.016 308.24 271.323 307.987 270.789 307.48C270.283 306.947 270.029 306.267 270.029 305.44V305.16C269.629 306.147 268.963 306.92 268.029 307.48C267.096 308.04 266.003 308.32 264.749 308.32C263.416 308.32 262.203 308.053 261.109 307.52C260.043 306.987 259.189 306.24 258.549 305.28C257.936 304.32 257.629 303.253 257.629 302.08C257.629 300.64 257.989 299.507 258.709 298.68C259.456 297.853 260.643 297.253 262.269 296.88C263.896 296.507 266.123 296.32 268.949 296.32H269.989V295.6C269.989 294.48 269.736 293.667 269.229 293.16C268.749 292.653 267.936 292.4 266.789 292.4C265.643 292.4 263.989 292.8 261.829 293.6C261.216 293.893 260.696 294.04 260.269 294.04C259.683 294.04 259.216 293.84 258.869 293.44C258.523 293.013 258.349 292.467 258.349 291.8C258.349 291.267 258.469 290.827 258.709 290.48C258.949 290.133 259.336 289.813 259.869 289.52C260.803 289.013 261.936 288.613 263.269 288.32C264.629 288.027 265.963 287.88 267.269 287.88ZM266.069 304.16C267.243 304.16 268.189 303.773 268.909 303C269.629 302.2 269.989 301.173 269.989 299.92V299.24H269.309C267.149 299.24 265.629 299.413 264.749 299.76C263.896 300.107 263.469 300.733 263.469 301.64C263.469 302.387 263.709 303 264.189 303.48C264.696 303.933 265.323 304.16 266.069 304.16ZM291.185 303.84C291.985 303.893 292.572 304.093 292.945 304.44C293.319 304.787 293.505 305.293 293.505 305.96C293.505 306.733 293.199 307.32 292.585 307.72C291.972 308.12 291.092 308.28 289.945 308.2L288.825 308.12C284.159 307.747 281.825 305.307 281.825 300.8V292.88H280.225C279.345 292.88 278.679 292.693 278.225 292.32C277.772 291.92 277.545 291.36 277.545 290.64C277.545 289.893 277.772 289.333 278.225 288.96C278.679 288.56 279.345 288.36 280.225 288.36H281.825V285.24C281.825 284.36 282.092 283.667 282.625 283.16C283.185 282.653 283.932 282.4 284.865 282.4C285.799 282.4 286.532 282.653 287.065 283.16C287.599 283.667 287.865 284.36 287.865 285.24V288.36H290.665C292.479 288.36 293.385 289.12 293.385 290.64C293.385 291.36 293.159 291.92 292.705 292.32C292.252 292.693 291.572 292.88 290.665 292.88H287.865V301.24C287.865 302.04 288.052 302.653 288.425 303.08C288.799 303.48 289.345 303.707 290.065 303.76L291.185 303.84ZM305.174 308.32C303.094 308.32 301.267 307.907 299.694 307.08C298.121 306.227 296.907 305.04 296.054 303.52C295.201 301.973 294.774 300.16 294.774 298.08C294.774 296 295.201 294.2 296.054 292.68C296.907 291.133 298.121 289.947 299.694 289.12C301.267 288.293 303.094 287.88 305.174 287.88C307.254 287.88 309.081 288.293 310.654 289.12C312.227 289.947 313.441 291.133 314.294 292.68C315.147 294.2 315.574 296 315.574 298.08C315.574 300.16 315.147 301.973 314.294 303.52C313.441 305.04 312.227 306.227 310.654 307.08C309.081 307.907 307.254 308.32 305.174 308.32ZM305.174 303.72C308.107 303.72 309.574 301.84 309.574 298.08C309.574 296.187 309.187 294.773 308.414 293.84C307.667 292.907 306.587 292.44 305.174 292.44C302.241 292.44 300.774 294.32 300.774 298.08C300.774 301.84 302.241 303.72 305.174 303.72ZM98.64 329.88C100.987 329.88 102.733 330.573 103.88 331.96C105.027 333.32 105.6 335.387 105.6 338.16V347.4C105.6 348.28 105.32 348.973 104.76 349.48C104.227 349.987 103.493 350.24 102.56 350.24C101.627 350.24 100.893 349.987 100.36 349.48C99.8267 348.973 99.56 348.28 99.56 347.4V338.44C99.56 337.107 99.3067 336.133 98.8 335.52C98.32 334.907 97.56 334.6 96.52 334.6C95.2667 334.6 94.2533 335 93.48 335.8C92.7333 336.6 92.36 337.667 92.36 339V347.4C92.36 348.28 92.0933 348.973 91.56 349.48C91.0267 349.987 90.2933 350.24 89.36 350.24C88.4267 350.24 87.68 349.987 87.12 349.48C86.5867 348.973 86.32 348.28 86.32 347.4V332.72C86.32 331.893 86.6 331.227 87.16 330.72C87.7467 330.213 88.4933 329.96 89.4 329.96C90.2267 329.96 90.8933 330.213 91.4 330.72C91.9333 331.2 92.2 331.827 92.2 332.6V333.16C92.8933 332.093 93.7867 331.28 94.88 330.72C96 330.16 97.2533 329.88 98.64 329.88ZM119.549 350.32C117.469 350.32 115.642 349.907 114.069 349.08C112.496 348.227 111.282 347.04 110.429 345.52C109.576 343.973 109.149 342.16 109.149 340.08C109.149 338 109.576 336.2 110.429 334.68C111.282 333.133 112.496 331.947 114.069 331.12C115.642 330.293 117.469 329.88 119.549 329.88C121.629 329.88 123.456 330.293 125.029 331.12C126.602 331.947 127.816 333.133 128.669 334.68C129.522 336.2 129.949 338 129.949 340.08C129.949 342.16 129.522 343.973 128.669 345.52C127.816 347.04 126.602 348.227 125.029 349.08C123.456 349.907 121.629 350.32 119.549 350.32ZM119.549 345.72C122.482 345.72 123.949 343.84 123.949 340.08C123.949 338.187 123.562 336.773 122.789 335.84C122.042 334.907 120.962 334.44 119.549 334.44C116.616 334.44 115.149 336.32 115.149 340.08C115.149 343.84 116.616 345.72 119.549 345.72ZM168.997 329.88C171.13 329.88 172.77 330.533 173.917 331.84C175.063 333.12 175.637 335.227 175.637 338.16V347.4C175.637 348.333 175.357 349.04 174.797 349.52C174.237 350 173.517 350.24 172.637 350.24C171.783 350.24 171.063 350 170.477 349.52C169.89 349.04 169.597 348.333 169.597 347.4V338.08C169.597 336.8 169.37 335.907 168.917 335.4C168.49 334.867 167.823 334.6 166.917 334.6C165.797 334.6 164.903 334.987 164.237 335.76C163.57 336.533 163.237 337.613 163.237 339V347.4C163.237 348.333 162.957 349.04 162.397 349.52C161.837 350 161.117 350.24 160.237 350.24C159.383 350.24 158.663 350 158.077 349.52C157.49 349.04 157.197 348.333 157.197 347.4V338.08C157.197 336.8 156.97 335.907 156.517 335.4C156.09 334.867 155.423 334.6 154.517 334.6C153.397 334.6 152.503 334.987 151.837 335.76C151.17 336.533 150.837 337.613 150.837 339V347.4C150.837 348.333 150.543 349.04 149.957 349.52C149.397 350 148.69 350.24 147.837 350.24C146.983 350.24 146.263 350 145.677 349.52C145.09 349.04 144.797 348.333 144.797 347.4V332.72C144.797 331.84 145.09 331.16 145.677 330.68C146.29 330.2 147.023 329.96 147.877 329.96C148.677 329.96 149.343 330.2 149.877 330.68C150.41 331.133 150.677 331.773 150.677 332.6V333C151.317 331.987 152.143 331.213 153.157 330.68C154.197 330.147 155.37 329.88 156.677 329.88C158.09 329.88 159.277 330.173 160.237 330.76C161.223 331.32 161.983 332.24 162.517 333.52C163.13 332.4 163.997 331.52 165.117 330.88C166.263 330.213 167.557 329.88 168.997 329.88ZM189.027 329.88C191.907 329.88 194.041 330.587 195.427 332C196.814 333.387 197.507 335.52 197.507 338.4V347.44C197.507 348.32 197.254 349.013 196.747 349.52C196.241 350 195.534 350.24 194.627 350.24C193.774 350.24 193.081 349.987 192.547 349.48C192.041 348.947 191.787 348.267 191.787 347.44V347.16C191.387 348.147 190.721 348.92 189.787 349.48C188.854 350.04 187.761 350.32 186.507 350.32C185.174 350.32 183.961 350.053 182.867 349.52C181.801 348.987 180.947 348.24 180.307 347.28C179.694 346.32 179.387 345.253 179.387 344.08C179.387 342.64 179.747 341.507 180.467 340.68C181.214 339.853 182.401 339.253 184.027 338.88C185.654 338.507 187.881 338.32 190.707 338.32H191.747V337.6C191.747 336.48 191.494 335.667 190.987 335.16C190.507 334.653 189.694 334.4 188.547 334.4C187.401 334.4 185.747 334.8 183.587 335.6C182.974 335.893 182.454 336.04 182.027 336.04C181.441 336.04 180.974 335.84 180.627 335.44C180.281 335.013 180.107 334.467 180.107 333.8C180.107 333.267 180.227 332.827 180.467 332.48C180.707 332.133 181.094 331.813 181.627 331.52C182.561 331.013 183.694 330.613 185.027 330.32C186.387 330.027 187.721 329.88 189.027 329.88ZM187.827 346.16C189.001 346.16 189.947 345.773 190.667 345C191.387 344.2 191.747 343.173 191.747 341.92V341.24H191.067C188.907 341.24 187.387 341.413 186.507 341.76C185.654 342.107 185.227 342.733 185.227 343.64C185.227 344.387 185.467 345 185.947 345.48C186.454 345.933 187.081 346.16 187.827 346.16ZM214.183 329.88C215.863 329.88 217.356 330.32 218.663 331.2C219.996 332.053 221.023 333.267 221.743 334.84C222.49 336.387 222.863 338.173 222.863 340.2C222.863 342.227 222.49 344.013 221.743 345.56C221.023 347.08 220.01 348.253 218.703 349.08C217.396 349.907 215.89 350.32 214.183 350.32C212.85 350.32 211.636 350.053 210.543 349.52C209.476 348.96 208.65 348.187 208.063 347.2V354.76C208.063 355.56 207.796 356.2 207.263 356.68C206.73 357.16 206.023 357.4 205.143 357.4C204.21 357.4 203.45 357.147 202.863 356.64C202.303 356.133 202.023 355.467 202.023 354.64V332.8C202.023 331.947 202.29 331.267 202.823 330.76C203.383 330.227 204.116 329.96 205.023 329.96C205.93 329.96 206.65 330.227 207.183 330.76C207.716 331.267 207.983 331.947 207.983 332.8V333.12C208.57 332.107 209.41 331.32 210.503 330.76C211.596 330.173 212.823 329.88 214.183 329.88ZM212.423 345.72C213.836 345.72 214.93 345.253 215.703 344.32C216.476 343.36 216.863 341.987 216.863 340.2C216.863 338.387 216.476 336.987 215.703 336C214.93 334.987 213.836 334.48 212.423 334.48C211.01 334.48 209.916 334.973 209.143 335.96C208.37 336.92 207.983 338.307 207.983 340.12C207.983 341.907 208.37 343.293 209.143 344.28C209.916 345.24 211.01 345.72 212.423 345.72ZM235.394 329.88C238.274 329.88 240.408 330.587 241.794 332C243.181 333.387 243.874 335.52 243.874 338.4V347.44C243.874 348.32 243.621 349.013 243.114 349.52C242.608 350 241.901 350.24 240.994 350.24C240.141 350.24 239.448 349.987 238.914 349.48C238.408 348.947 238.154 348.267 238.154 347.44V347.16C237.754 348.147 237.088 348.92 236.154 349.48C235.221 350.04 234.128 350.32 232.874 350.32C231.541 350.32 230.328 350.053 229.234 349.52C228.168 348.987 227.314 348.24 226.674 347.28C226.061 346.32 225.754 345.253 225.754 344.08C225.754 342.64 226.114 341.507 226.834 340.68C227.581 339.853 228.768 339.253 230.394 338.88C232.021 338.507 234.248 338.32 237.074 338.32H238.114V337.6C238.114 336.48 237.861 335.667 237.354 335.16C236.874 334.653 236.061 334.4 234.914 334.4C233.768 334.4 232.114 334.8 229.954 335.6C229.341 335.893 228.821 336.04 228.394 336.04C227.808 336.04 227.341 335.84 226.994 335.44C226.648 335.013 226.474 334.467 226.474 333.8C226.474 333.267 226.594 332.827 226.834 332.48C227.074 332.133 227.461 331.813 227.994 331.52C228.928 331.013 230.061 330.613 231.394 330.32C232.754 330.027 234.088 329.88 235.394 329.88ZM234.194 346.16C235.368 346.16 236.314 345.773 237.034 345C237.754 344.2 238.114 343.173 238.114 341.92V341.24H237.434C235.274 341.24 233.754 341.413 232.874 341.76C232.021 342.107 231.594 342.733 231.594 343.64C231.594 344.387 231.834 345 232.314 345.48C232.821 345.933 233.448 346.16 234.194 346.16Z" fill="white"/>
<path d="M96.744 389.22C97.008 389.22 97.224 389.31 97.392 389.49C97.56 389.658 97.644 389.88 97.644 390.156V401.208C97.644 401.484 97.566 401.7 97.41 401.856C97.266 402.012 97.062 402.09 96.798 402.09C96.546 402.09 96.348 402.012 96.204 401.856C96.06 401.7 95.988 401.484 95.988 401.208V392.838L92.46 399.552C92.232 399.972 91.938 400.182 91.578 400.182C91.218 400.182 90.924 399.972 90.696 399.552L87.15 392.91V401.208C87.15 401.484 87.078 401.7 86.934 401.856C86.79 402.012 86.586 402.09 86.322 402.09C86.07 402.09 85.866 402.012 85.71 401.856C85.566 401.688 85.494 401.472 85.494 401.208V390.156C85.494 389.88 85.578 389.658 85.746 389.49C85.914 389.31 86.13 389.22 86.394 389.22C86.766 389.22 87.066 389.436 87.294 389.868L91.596 398.094L95.862 389.868C96.09 389.436 96.384 389.22 96.744 389.22ZM107.199 393.036C107.475 393.036 107.691 393.114 107.847 393.27C108.015 393.426 108.099 393.642 108.099 393.918V401.244C108.099 401.496 108.015 401.7 107.847 401.856C107.679 402.012 107.457 402.09 107.181 402.09C106.929 402.09 106.725 402.018 106.569 401.874C106.413 401.718 106.335 401.514 106.335 401.262V400.578C106.059 401.082 105.675 401.466 105.183 401.73C104.703 401.994 104.163 402.126 103.563 402.126C101.427 402.126 100.359 400.95 100.359 398.598V393.918C100.359 393.642 100.437 393.426 100.593 393.27C100.761 393.114 100.989 393.036 101.277 393.036C101.553 393.036 101.769 393.114 101.925 393.27C102.093 393.426 102.177 393.642 102.177 393.918V398.58C102.177 399.288 102.321 399.81 102.609 400.146C102.897 400.482 103.341 400.65 103.941 400.65C104.649 400.65 105.213 400.422 105.633 399.966C106.065 399.51 106.281 398.904 106.281 398.148V393.918C106.281 393.654 106.365 393.444 106.533 393.288C106.701 393.12 106.923 393.036 107.199 393.036ZM111.561 402.09C111.297 402.09 111.075 402.018 110.895 401.874C110.727 401.73 110.643 401.514 110.643 401.226V393.918C110.643 393.63 110.727 393.414 110.895 393.27C111.075 393.114 111.297 393.036 111.561 393.036C111.825 393.036 112.041 393.114 112.209 393.27C112.377 393.414 112.461 393.63 112.461 393.918V401.226C112.461 401.514 112.377 401.73 112.209 401.874C112.041 402.018 111.825 402.09 111.561 402.09ZM111.561 391.272C111.213 391.272 110.937 391.176 110.733 390.984C110.529 390.792 110.427 390.54 110.427 390.228C110.427 389.916 110.529 389.67 110.733 389.49C110.937 389.298 111.213 389.202 111.561 389.202C111.897 389.202 112.167 389.298 112.371 389.49C112.587 389.67 112.695 389.916 112.695 390.228C112.695 390.54 112.593 390.792 112.389 390.984C112.185 391.176 111.909 391.272 111.561 391.272ZM119.55 400.704C119.814 400.728 120 400.8 120.108 400.92C120.228 401.028 120.288 401.184 120.288 401.388C120.288 401.628 120.192 401.814 120 401.946C119.82 402.066 119.55 402.114 119.19 402.09L118.704 402.054C117.732 401.982 117.006 401.688 116.526 401.172C116.046 400.644 115.806 399.87 115.806 398.85V394.62H114.726C114.198 394.62 113.934 394.386 113.934 393.918C113.934 393.702 114 393.534 114.132 393.414C114.276 393.282 114.474 393.216 114.726 393.216H115.806V391.362C115.806 391.086 115.884 390.87 116.04 390.714C116.208 390.558 116.43 390.48 116.706 390.48C116.982 390.48 117.204 390.558 117.372 390.714C117.54 390.87 117.624 391.086 117.624 391.362V393.216H119.406C119.658 393.216 119.85 393.282 119.982 393.414C120.126 393.534 120.198 393.702 120.198 393.918C120.198 394.146 120.126 394.32 119.982 394.44C119.85 394.56 119.658 394.62 119.406 394.62H117.624V398.976C117.624 399.54 117.738 399.954 117.966 400.218C118.206 400.482 118.566 400.632 119.046 400.668L119.55 400.704ZM125.284 393C126.448 393 127.312 393.294 127.876 393.882C128.452 394.47 128.74 395.364 128.74 396.564V401.226C128.74 401.502 128.662 401.718 128.506 401.874C128.35 402.018 128.134 402.09 127.858 402.09C127.594 402.09 127.384 402.012 127.228 401.856C127.072 401.7 126.994 401.49 126.994 401.226V400.56C126.766 401.064 126.424 401.454 125.968 401.73C125.524 401.994 125.002 402.126 124.402 402.126C123.826 402.126 123.298 402.012 122.818 401.784C122.35 401.544 121.978 401.22 121.702 400.812C121.426 400.404 121.288 399.942 121.288 399.426C121.276 398.778 121.438 398.274 121.774 397.914C122.11 397.542 122.656 397.278 123.412 397.122C124.168 396.954 125.218 396.87 126.562 396.87H126.976V396.348C126.976 395.676 126.838 395.19 126.562 394.89C126.286 394.59 125.842 394.44 125.23 394.44C124.81 394.44 124.414 394.494 124.042 394.602C123.67 394.71 123.262 394.866 122.818 395.07C122.494 395.25 122.266 395.34 122.134 395.34C121.954 395.34 121.804 395.274 121.684 395.142C121.576 395.01 121.522 394.842 121.522 394.638C121.522 394.458 121.57 394.302 121.666 394.17C121.774 394.026 121.942 393.888 122.17 393.756C122.59 393.528 123.082 393.348 123.646 393.216C124.21 393.072 124.756 393 125.284 393ZM124.726 400.776C125.386 400.776 125.926 400.554 126.346 400.11C126.766 399.654 126.976 399.072 126.976 398.364V397.896H126.652C125.716 397.896 124.996 397.938 124.492 398.022C123.988 398.106 123.628 398.25 123.412 398.454C123.196 398.646 123.088 398.928 123.088 399.3C123.088 399.732 123.244 400.086 123.556 400.362C123.868 400.638 124.258 400.776 124.726 400.776ZM134.287 402.126C133.063 402.126 132.061 401.874 131.281 401.37C131.065 401.238 130.909 401.1 130.813 400.956C130.729 400.812 130.687 400.65 130.687 400.47C130.687 400.278 130.741 400.116 130.849 399.984C130.957 399.852 131.095 399.786 131.263 399.786C131.419 399.786 131.665 399.882 132.001 400.074C132.361 400.266 132.709 400.422 133.045 400.542C133.393 400.662 133.825 400.722 134.341 400.722C134.917 400.722 135.367 400.62 135.691 400.416C136.015 400.212 136.177 399.924 136.177 399.552C136.177 399.312 136.111 399.12 135.979 398.976C135.859 398.832 135.643 398.706 135.331 398.598C135.019 398.478 134.557 398.352 133.945 398.22C132.889 397.992 132.127 397.686 131.659 397.302C131.203 396.906 130.975 396.372 130.975 395.7C130.975 395.184 131.125 394.722 131.425 394.314C131.725 393.894 132.139 393.57 132.667 393.342C133.195 393.114 133.795 393 134.467 393C134.947 393 135.415 393.066 135.871 393.198C136.327 393.318 136.729 393.498 137.077 393.738C137.473 394.002 137.671 394.308 137.671 394.656C137.671 394.848 137.611 395.01 137.491 395.142C137.383 395.274 137.251 395.34 137.095 395.34C136.987 395.34 136.879 395.316 136.771 395.268C136.663 395.22 136.519 395.142 136.339 395.034C136.015 394.842 135.709 394.692 135.421 394.584C135.145 394.476 134.797 394.422 134.377 394.422C133.873 394.422 133.465 394.53 133.153 394.746C132.853 394.962 132.703 395.256 132.703 395.628C132.703 395.964 132.841 396.228 133.117 396.42C133.405 396.6 133.939 396.774 134.719 396.942C135.523 397.11 136.153 397.302 136.609 397.518C137.065 397.734 137.389 398.004 137.581 398.328C137.785 398.64 137.887 399.042 137.887 399.534C137.887 400.314 137.557 400.944 136.897 401.424C136.249 401.892 135.379 402.126 134.287 402.126ZM148.418 402.126C147.566 402.126 146.816 401.94 146.168 401.568C145.532 401.196 145.034 400.668 144.674 399.984C144.326 399.3 144.152 398.508 144.152 397.608C144.152 396.696 144.332 395.892 144.692 395.196C145.064 394.5 145.58 393.96 146.24 393.576C146.9 393.192 147.656 393 148.508 393C148.964 393 149.42 393.066 149.876 393.198C150.344 393.33 150.758 393.51 151.118 393.738C151.502 394.002 151.694 394.308 151.694 394.656C151.694 394.86 151.64 395.034 151.532 395.178C151.424 395.31 151.286 395.376 151.118 395.376C151.01 395.376 150.902 395.352 150.794 395.304C150.686 395.244 150.548 395.16 150.38 395.052C150.08 394.86 149.798 394.716 149.534 394.62C149.282 394.512 148.976 394.458 148.616 394.458C147.8 394.458 147.164 394.734 146.708 395.286C146.264 395.838 146.042 396.606 146.042 397.59C146.042 398.574 146.264 399.336 146.708 399.876C147.152 400.404 147.782 400.668 148.598 400.668C148.958 400.668 149.276 400.614 149.552 400.506C149.828 400.398 150.11 400.254 150.398 400.074C150.53 399.99 150.662 399.918 150.794 399.858C150.926 399.798 151.046 399.768 151.154 399.768C151.322 399.768 151.46 399.84 151.568 399.984C151.676 400.116 151.73 400.284 151.73 400.488C151.73 400.656 151.682 400.812 151.586 400.956C151.502 401.088 151.352 401.226 151.136 401.37C150.776 401.61 150.356 401.796 149.876 401.928C149.396 402.06 148.91 402.126 148.418 402.126ZM157.966 393.036C158.542 393 158.83 393.246 158.83 393.774C158.83 394.038 158.764 394.236 158.632 394.368C158.5 394.5 158.272 394.578 157.948 394.602L157.408 394.656C156.652 394.728 156.088 394.992 155.716 395.448C155.356 395.904 155.176 396.456 155.176 397.104V401.226C155.176 401.514 155.092 401.73 154.924 401.874C154.756 402.018 154.54 402.09 154.276 402.09C154.012 402.09 153.79 402.018 153.61 401.874C153.442 401.73 153.358 401.514 153.358 401.226V393.9C153.358 393.624 153.442 393.414 153.61 393.27C153.79 393.114 154.012 393.036 154.276 393.036C154.516 393.036 154.714 393.114 154.87 393.27C155.038 393.414 155.122 393.618 155.122 393.882V394.746C155.362 394.218 155.71 393.816 156.166 393.54C156.622 393.264 157.138 393.102 157.714 393.054L157.966 393.036ZM160.867 402.09C160.603 402.09 160.381 402.018 160.201 401.874C160.033 401.73 159.949 401.514 159.949 401.226V393.918C159.949 393.63 160.033 393.414 160.201 393.27C160.381 393.114 160.603 393.036 160.867 393.036C161.131 393.036 161.347 393.114 161.515 393.27C161.683 393.414 161.767 393.63 161.767 393.918V401.226C161.767 401.514 161.683 401.73 161.515 401.874C161.347 402.018 161.131 402.09 160.867 402.09ZM160.867 391.272C160.519 391.272 160.243 391.176 160.039 390.984C159.835 390.792 159.733 390.54 159.733 390.228C159.733 389.916 159.835 389.67 160.039 389.49C160.243 389.298 160.519 389.202 160.867 389.202C161.203 389.202 161.473 389.298 161.677 389.49C161.893 389.67 162.001 389.916 162.001 390.228C162.001 390.54 161.899 390.792 161.695 390.984C161.491 391.176 161.215 391.272 160.867 391.272ZM167.999 393C169.163 393 170.027 393.294 170.591 393.882C171.167 394.47 171.455 395.364 171.455 396.564V401.226C171.455 401.502 171.377 401.718 171.221 401.874C171.065 402.018 170.849 402.09 170.573 402.09C170.309 402.09 170.099 402.012 169.943 401.856C169.787 401.7 169.709 401.49 169.709 401.226V400.56C169.481 401.064 169.139 401.454 168.683 401.73C168.239 401.994 167.717 402.126 167.117 402.126C166.541 402.126 166.013 402.012 165.533 401.784C165.065 401.544 164.693 401.22 164.417 400.812C164.141 400.404 164.003 399.942 164.003 399.426C163.991 398.778 164.153 398.274 164.489 397.914C164.825 397.542 165.371 397.278 166.127 397.122C166.883 396.954 167.933 396.87 169.277 396.87H169.691V396.348C169.691 395.676 169.553 395.19 169.277 394.89C169.001 394.59 168.557 394.44 167.945 394.44C167.525 394.44 167.129 394.494 166.757 394.602C166.385 394.71 165.977 394.866 165.533 395.07C165.209 395.25 164.981 395.34 164.849 395.34C164.669 395.34 164.519 395.274 164.399 395.142C164.291 395.01 164.237 394.842 164.237 394.638C164.237 394.458 164.285 394.302 164.381 394.17C164.489 394.026 164.657 393.888 164.885 393.756C165.305 393.528 165.797 393.348 166.361 393.216C166.925 393.072 167.471 393 167.999 393ZM167.441 400.776C168.101 400.776 168.641 400.554 169.061 400.11C169.481 399.654 169.691 399.072 169.691 398.364V397.896H169.367C168.431 397.896 167.711 397.938 167.207 398.022C166.703 398.106 166.343 398.25 166.127 398.454C165.911 398.646 165.803 398.928 165.803 399.3C165.803 399.732 165.959 400.086 166.271 400.362C166.583 400.638 166.973 400.776 167.441 400.776ZM178.676 393C180.776 393 181.826 394.182 181.826 396.546V401.226C181.826 401.502 181.742 401.718 181.574 401.874C181.418 402.018 181.196 402.09 180.908 402.09C180.632 402.09 180.41 402.012 180.242 401.856C180.086 401.7 180.008 401.49 180.008 401.226V396.636C180.008 395.892 179.858 395.346 179.558 394.998C179.27 394.65 178.814 394.476 178.19 394.476C177.458 394.476 176.87 394.704 176.426 395.16C175.982 395.616 175.76 396.228 175.76 396.996V401.226C175.76 401.49 175.676 401.7 175.508 401.856C175.352 402.012 175.136 402.09 174.86 402.09C174.584 402.09 174.362 402.012 174.194 401.856C174.026 401.7 173.942 401.49 173.942 401.226V393.9C173.942 393.648 174.026 393.444 174.194 393.288C174.374 393.12 174.596 393.036 174.86 393.036C175.124 393.036 175.334 393.114 175.49 393.27C175.646 393.426 175.724 393.63 175.724 393.882V394.62C176.012 394.092 176.414 393.69 176.93 393.414C177.446 393.138 178.028 393 178.676 393ZM190.811 399.768C190.979 399.768 191.117 399.84 191.225 399.984C191.333 400.116 191.387 400.284 191.387 400.488C191.387 400.656 191.339 400.812 191.243 400.956C191.159 401.088 191.009 401.226 190.793 401.37C190.481 401.574 190.121 401.742 189.713 401.874C189.305 402.006 188.891 402.084 188.471 402.108L188.381 402.792C188.549 402.756 188.699 402.738 188.831 402.738C189.203 402.738 189.515 402.846 189.767 403.062C190.031 403.278 190.163 403.584 190.163 403.98C190.163 404.424 189.971 404.784 189.587 405.06C189.203 405.348 188.657 405.492 187.949 405.492C187.481 405.492 187.067 405.426 186.707 405.294C186.491 405.21 186.383 405.06 186.383 404.844C186.383 404.7 186.431 404.58 186.527 404.484C186.635 404.388 186.773 404.364 186.941 404.412C187.301 404.508 187.637 404.556 187.949 404.556C188.261 404.556 188.501 404.508 188.669 404.412C188.837 404.316 188.921 404.172 188.921 403.98C188.921 403.836 188.873 403.722 188.777 403.638C188.693 403.566 188.567 403.53 188.399 403.53C188.279 403.53 188.117 403.554 187.913 403.602C187.709 403.65 187.583 403.674 187.535 403.674C187.439 403.674 187.349 403.638 187.265 403.566C187.193 403.506 187.163 403.422 187.175 403.314L187.319 402.072C186.239 401.904 185.381 401.424 184.745 400.632C184.121 399.84 183.809 398.832 183.809 397.608C183.809 396.696 183.989 395.892 184.349 395.196C184.721 394.5 185.237 393.96 185.897 393.576C186.557 393.192 187.313 393 188.165 393C188.621 393 189.077 393.066 189.533 393.198C190.001 393.33 190.415 393.51 190.775 393.738C191.159 394.002 191.351 394.308 191.351 394.656C191.351 394.86 191.297 395.034 191.189 395.178C191.081 395.31 190.943 395.376 190.775 395.376C190.667 395.376 190.559 395.352 190.451 395.304C190.343 395.244 190.205 395.16 190.037 395.052C189.737 394.86 189.455 394.716 189.191 394.62C188.939 394.512 188.633 394.458 188.273 394.458C187.457 394.458 186.821 394.734 186.365 395.286C185.921 395.838 185.699 396.606 185.699 397.59C185.699 398.574 185.921 399.336 186.365 399.876C186.809 400.404 187.439 400.668 188.255 400.668C188.615 400.668 188.933 400.614 189.209 400.506C189.485 400.398 189.767 400.254 190.055 400.074C190.187 399.99 190.319 399.918 190.451 399.858C190.583 399.798 190.703 399.768 190.811 399.768ZM196.704 393C197.868 393 198.732 393.294 199.296 393.882C199.872 394.47 200.16 395.364 200.16 396.564V401.226C200.16 401.502 200.082 401.718 199.926 401.874C199.77 402.018 199.554 402.09 199.278 402.09C199.014 402.09 198.804 402.012 198.648 401.856C198.492 401.7 198.414 401.49 198.414 401.226V400.56C198.186 401.064 197.844 401.454 197.388 401.73C196.944 401.994 196.422 402.126 195.822 402.126C195.246 402.126 194.718 402.012 194.238 401.784C193.77 401.544 193.398 401.22 193.122 400.812C192.846 400.404 192.708 399.942 192.708 399.426C192.696 398.778 192.858 398.274 193.194 397.914C193.53 397.542 194.076 397.278 194.832 397.122C195.588 396.954 196.638 396.87 197.982 396.87H198.396V396.348C198.396 395.676 198.258 395.19 197.982 394.89C197.706 394.59 197.262 394.44 196.65 394.44C196.23 394.44 195.834 394.494 195.462 394.602C195.09 394.71 194.682 394.866 194.238 395.07C193.914 395.25 193.686 395.34 193.554 395.34C193.374 395.34 193.224 395.274 193.104 395.142C192.996 395.01 192.942 394.842 192.942 394.638C192.942 394.458 192.99 394.302 193.086 394.17C193.194 394.026 193.362 393.888 193.59 393.756C194.01 393.528 194.502 393.348 195.066 393.216C195.63 393.072 196.176 393 196.704 393ZM196.146 400.776C196.806 400.776 197.346 400.554 197.766 400.11C198.186 399.654 198.396 399.072 198.396 398.364V397.896H198.072C197.136 397.896 196.416 397.938 195.912 398.022C195.408 398.106 195.048 398.25 194.832 398.454C194.616 398.646 194.508 398.928 194.508 399.3C194.508 399.732 194.664 400.086 194.976 400.362C195.288 400.638 195.678 400.776 196.146 400.776ZM205.707 402.126C204.483 402.126 203.481 401.874 202.701 401.37C202.485 401.238 202.329 401.1 202.233 400.956C202.149 400.812 202.107 400.65 202.107 400.47C202.107 400.278 202.161 400.116 202.269 399.984C202.377 399.852 202.515 399.786 202.683 399.786C202.839 399.786 203.085 399.882 203.421 400.074C203.781 400.266 204.129 400.422 204.465 400.542C204.813 400.662 205.245 400.722 205.761 400.722C206.337 400.722 206.787 400.62 207.111 400.416C207.435 400.212 207.597 399.924 207.597 399.552C207.597 399.312 207.531 399.12 207.399 398.976C207.279 398.832 207.063 398.706 206.751 398.598C206.439 398.478 205.977 398.352 205.365 398.22C204.309 397.992 203.547 397.686 203.079 397.302C202.623 396.906 202.395 396.372 202.395 395.7C202.395 395.184 202.545 394.722 202.845 394.314C203.145 393.894 203.559 393.57 204.087 393.342C204.615 393.114 205.215 393 205.887 393C206.367 393 206.835 393.066 207.291 393.198C207.747 393.318 208.149 393.498 208.497 393.738C208.893 394.002 209.091 394.308 209.091 394.656C209.091 394.848 209.031 395.01 208.911 395.142C208.803 395.274 208.671 395.34 208.515 395.34C208.407 395.34 208.299 395.316 208.191 395.268C208.083 395.22 207.939 395.142 207.759 395.034C207.435 394.842 207.129 394.692 206.841 394.584C206.565 394.476 206.217 394.422 205.797 394.422C205.293 394.422 204.885 394.53 204.573 394.746C204.273 394.962 204.123 395.256 204.123 395.628C204.123 395.964 204.261 396.228 204.537 396.42C204.825 396.6 205.359 396.774 206.139 396.942C206.943 397.11 207.573 397.302 208.029 397.518C208.485 397.734 208.809 398.004 209.001 398.328C209.205 398.64 209.307 399.042 209.307 399.534C209.307 400.314 208.977 400.944 208.317 401.424C207.669 401.892 206.799 402.126 205.707 402.126ZM222.952 399.786C223.12 399.786 223.258 399.852 223.366 399.984C223.474 400.116 223.528 400.284 223.528 400.488C223.528 400.836 223.312 401.13 222.88 401.37C222.46 401.61 221.998 401.796 221.494 401.928C221.002 402.06 220.528 402.126 220.072 402.126C218.68 402.126 217.582 401.724 216.778 400.92C215.974 400.104 215.572 398.994 215.572 397.59C215.572 396.69 215.746 395.892 216.094 395.196C216.454 394.5 216.952 393.96 217.588 393.576C218.236 393.192 218.968 393 219.784 393C220.96 393 221.89 393.378 222.574 394.134C223.258 394.89 223.6 395.91 223.6 397.194C223.6 397.674 223.384 397.914 222.952 397.914H217.39C217.51 399.774 218.404 400.704 220.072 400.704C220.516 400.704 220.9 400.644 221.224 400.524C221.548 400.404 221.89 400.248 222.25 400.056C222.286 400.032 222.382 399.984 222.538 399.912C222.706 399.828 222.844 399.786 222.952 399.786ZM219.82 394.332C219.124 394.332 218.566 394.554 218.146 394.998C217.726 395.442 217.474 396.066 217.39 396.87H222.034C221.998 396.054 221.788 395.43 221.404 394.998C221.032 394.554 220.504 394.332 219.82 394.332ZM228.664 402.126C227.44 402.126 226.438 401.874 225.658 401.37C225.442 401.238 225.286 401.1 225.19 400.956C225.106 400.812 225.064 400.65 225.064 400.47C225.064 400.278 225.118 400.116 225.226 399.984C225.334 399.852 225.472 399.786 225.64 399.786C225.796 399.786 226.042 399.882 226.378 400.074C226.738 400.266 227.086 400.422 227.422 400.542C227.77 400.662 228.202 400.722 228.718 400.722C229.294 400.722 229.744 400.62 230.068 400.416C230.392 400.212 230.554 399.924 230.554 399.552C230.554 399.312 230.488 399.12 230.356 398.976C230.236 398.832 230.02 398.706 229.708 398.598C229.396 398.478 228.934 398.352 228.322 398.22C227.266 397.992 226.504 397.686 226.036 397.302C225.58 396.906 225.352 396.372 225.352 395.7C225.352 395.184 225.502 394.722 225.802 394.314C226.102 393.894 226.516 393.57 227.044 393.342C227.572 393.114 228.172 393 228.844 393C229.324 393 229.792 393.066 230.248 393.198C230.704 393.318 231.106 393.498 231.454 393.738C231.85 394.002 232.048 394.308 232.048 394.656C232.048 394.848 231.988 395.01 231.868 395.142C231.76 395.274 231.628 395.34 231.472 395.34C231.364 395.34 231.256 395.316 231.148 395.268C231.04 395.22 230.896 395.142 230.716 395.034C230.392 394.842 230.086 394.692 229.798 394.584C229.522 394.476 229.174 394.422 228.754 394.422C228.25 394.422 227.842 394.53 227.53 394.746C227.23 394.962 227.08 395.256 227.08 395.628C227.08 395.964 227.218 396.228 227.494 396.42C227.782 396.6 228.316 396.774 229.096 396.942C229.9 397.11 230.53 397.302 230.986 397.518C231.442 397.734 231.766 398.004 231.958 398.328C232.162 398.64 232.264 399.042 232.264 399.534C232.264 400.314 231.934 400.944 231.274 401.424C230.626 401.892 229.756 402.126 228.664 402.126ZM238.501 400.704C238.765 400.728 238.951 400.8 239.059 400.92C239.179 401.028 239.239 401.184 239.239 401.388C239.239 401.628 239.143 401.814 238.951 401.946C238.771 402.066 238.501 402.114 238.141 402.09L237.655 402.054C236.683 401.982 235.957 401.688 235.477 401.172C234.997 400.644 234.757 399.87 234.757 398.85V394.62H233.677C233.149 394.62 232.885 394.386 232.885 393.918C232.885 393.702 232.951 393.534 233.083 393.414C233.227 393.282 233.425 393.216 233.677 393.216H234.757V391.362C234.757 391.086 234.835 390.87 234.991 390.714C235.159 390.558 235.381 390.48 235.657 390.48C235.933 390.48 236.155 390.558 236.323 390.714C236.491 390.87 236.575 391.086 236.575 391.362V393.216H238.357C238.609 393.216 238.801 393.282 238.933 393.414C239.077 393.534 239.149 393.702 239.149 393.918C239.149 394.146 239.077 394.32 238.933 394.44C238.801 394.56 238.609 394.62 238.357 394.62H236.575V398.976C236.575 399.54 236.689 399.954 236.917 400.218C237.157 400.482 237.517 400.632 237.997 400.668L238.501 400.704ZM244.235 393C245.399 393 246.263 393.294 246.827 393.882C247.403 394.47 247.691 395.364 247.691 396.564V401.226C247.691 401.502 247.613 401.718 247.457 401.874C247.301 402.018 247.085 402.09 246.809 402.09C246.545 402.09 246.335 402.012 246.179 401.856C246.023 401.7 245.945 401.49 245.945 401.226V400.56C245.717 401.064 245.375 401.454 244.919 401.73C244.475 401.994 243.953 402.126 243.353 402.126C242.777 402.126 242.249 402.012 241.769 401.784C241.301 401.544 240.929 401.22 240.653 400.812C240.377 400.404 240.239 399.942 240.239 399.426C240.227 398.778 240.389 398.274 240.725 397.914C241.061 397.542 241.607 397.278 242.363 397.122C243.119 396.954 244.169 396.87 245.513 396.87H245.927V396.348C245.927 395.676 245.789 395.19 245.513 394.89C245.237 394.59 244.793 394.44 244.181 394.44C243.761 394.44 243.365 394.494 242.993 394.602C242.621 394.71 242.213 394.866 241.769 395.07C241.445 395.25 241.217 395.34 241.085 395.34C240.905 395.34 240.755 395.274 240.635 395.142C240.527 395.01 240.473 394.842 240.473 394.638C240.473 394.458 240.521 394.302 240.617 394.17C240.725 394.026 240.893 393.888 241.121 393.756C241.541 393.528 242.033 393.348 242.597 393.216C243.161 393.072 243.707 393 244.235 393ZM243.677 400.776C244.337 400.776 244.877 400.554 245.297 400.11C245.717 399.654 245.927 399.072 245.927 398.364V397.896H245.603C244.667 397.896 243.947 397.938 243.443 398.022C242.939 398.106 242.579 398.25 242.363 398.454C242.147 398.646 242.039 398.928 242.039 399.3C242.039 399.732 242.195 400.086 242.507 400.362C242.819 400.638 243.209 400.776 243.677 400.776ZM245.531 391.416C245.303 391.416 245.081 391.368 244.865 391.272C244.649 391.164 244.391 391.014 244.091 390.822C243.851 390.666 243.647 390.552 243.479 390.48C243.323 390.396 243.173 390.354 243.029 390.354C242.825 390.354 242.663 390.408 242.543 390.516C242.435 390.612 242.327 390.75 242.219 390.93C242.135 391.062 242.057 391.164 241.985 391.236C241.925 391.308 241.847 391.344 241.751 391.344C241.619 391.344 241.511 391.296 241.427 391.2C241.355 391.104 241.319 390.978 241.319 390.822C241.319 390.594 241.385 390.342 241.517 390.066C241.661 389.778 241.853 389.538 242.093 389.346C242.345 389.142 242.627 389.04 242.939 389.04C243.167 389.04 243.389 389.094 243.605 389.202C243.833 389.31 244.091 389.46 244.379 389.652C244.679 389.832 244.895 389.958 245.027 390.03C245.171 390.09 245.309 390.12 245.441 390.12C245.645 390.12 245.801 390.072 245.909 389.976C246.029 389.868 246.143 389.724 246.251 389.544C246.335 389.412 246.407 389.31 246.467 389.238C246.539 389.166 246.623 389.13 246.719 389.13C246.851 389.13 246.953 389.178 247.025 389.274C247.109 389.37 247.151 389.496 247.151 389.652C247.151 389.868 247.079 390.12 246.935 390.408C246.803 390.684 246.611 390.924 246.359 391.128C246.119 391.32 245.843 391.416 245.531 391.416ZM253.994 402.126C253.13 402.126 252.368 401.94 251.708 401.568C251.06 401.196 250.556 400.668 250.196 399.984C249.848 399.288 249.674 398.484 249.674 397.572C249.674 396.648 249.848 395.844 250.196 395.16C250.556 394.464 251.06 393.93 251.708 393.558C252.368 393.186 253.13 393 253.994 393C254.858 393 255.614 393.186 256.262 393.558C256.922 393.93 257.426 394.464 257.774 395.16C258.134 395.844 258.314 396.648 258.314 397.572C258.314 398.484 258.134 399.288 257.774 399.984C257.426 400.668 256.922 401.196 256.262 401.568C255.614 401.94 254.858 402.126 253.994 402.126ZM253.994 400.686C254.798 400.686 255.41 400.422 255.83 399.894C256.262 399.366 256.478 398.592 256.478 397.572C256.478 396.564 256.262 395.796 255.83 395.268C255.398 394.728 254.786 394.458 253.994 394.458C253.202 394.458 252.59 394.728 252.158 395.268C251.726 395.796 251.51 396.564 251.51 397.572C251.51 398.592 251.72 399.366 252.14 399.894C252.572 400.422 253.19 400.686 253.994 400.686ZM92.136 427.786C92.304 427.786 92.442 427.852 92.55 427.984C92.658 428.116 92.712 428.284 92.712 428.488C92.712 428.836 92.496 429.13 92.064 429.37C91.644 429.61 91.182 429.796 90.678 429.928C90.186 430.06 89.712 430.126 89.256 430.126C87.864 430.126 86.766 429.724 85.962 428.92C85.158 428.104 84.756 426.994 84.756 425.59C84.756 424.69 84.93 423.892 85.278 423.196C85.638 422.5 86.136 421.96 86.772 421.576C87.42 421.192 88.152 421 88.968 421C90.144 421 91.074 421.378 91.758 422.134C92.442 422.89 92.784 423.91 92.784 425.194C92.784 425.674 92.568 425.914 92.136 425.914H86.574C86.694 427.774 87.588 428.704 89.256 428.704C89.7 428.704 90.084 428.644 90.408 428.524C90.732 428.404 91.074 428.248 91.434 428.056C91.47 428.032 91.566 427.984 91.722 427.912C91.89 427.828 92.028 427.786 92.136 427.786ZM89.004 422.332C88.308 422.332 87.75 422.554 87.33 422.998C86.91 423.442 86.658 424.066 86.574 424.87H91.218C91.182 424.054 90.972 423.43 90.588 422.998C90.216 422.554 89.688 422.332 89.004 422.332ZM97.8473 430.126C96.6233 430.126 95.6213 429.874 94.8413 429.37C94.6253 429.238 94.4693 429.1 94.3733 428.956C94.2893 428.812 94.2473 428.65 94.2473 428.47C94.2473 428.278 94.3013 428.116 94.4093 427.984C94.5173 427.852 94.6553 427.786 94.8233 427.786C94.9793 427.786 95.2253 427.882 95.5613 428.074C95.9213 428.266 96.2693 428.422 96.6053 428.542C96.9533 428.662 97.3853 428.722 97.9013 428.722C98.4773 428.722 98.9273 428.62 99.2513 428.416C99.5753 428.212 99.7373 427.924 99.7373 427.552C99.7373 427.312 99.6713 427.12 99.5393 426.976C99.4193 426.832 99.2033 426.706 98.8913 426.598C98.5793 426.478 98.1173 426.352 97.5053 426.22C96.4493 425.992 95.6873 425.686 95.2193 425.302C94.7633 424.906 94.5353 424.372 94.5353 423.7C94.5353 423.184 94.6853 422.722 94.9853 422.314C95.2853 421.894 95.6993 421.57 96.2273 421.342C96.7553 421.114 97.3553 421 98.0273 421C98.5073 421 98.9753 421.066 99.4313 421.198C99.8873 421.318 100.289 421.498 100.637 421.738C101.033 422.002 101.231 422.308 101.231 422.656C101.231 422.848 101.171 423.01 101.051 423.142C100.943 423.274 100.811 423.34 100.655 423.34C100.547 423.34 100.439 423.316 100.331 423.268C100.223 423.22 100.079 423.142 99.8993 423.034C99.5753 422.842 99.2693 422.692 98.9813 422.584C98.7053 422.476 98.3573 422.422 97.9373 422.422C97.4333 422.422 97.0253 422.53 96.7133 422.746C96.4133 422.962 96.2633 423.256 96.2633 423.628C96.2633 423.964 96.4013 424.228 96.6773 424.42C96.9653 424.6 97.4993 424.774 98.2793 424.942C99.0833 425.11 99.7133 425.302 100.169 425.518C100.625 425.734 100.949 426.004 101.141 426.328C101.345 426.64 101.447 427.042 101.447 427.534C101.447 428.314 101.117 428.944 100.457 429.424C99.8093 429.892 98.9393 430.126 97.8473 430.126ZM108.187 421C108.943 421 109.615 421.192 110.203 421.576C110.803 421.96 111.265 422.5 111.589 423.196C111.925 423.892 112.093 424.696 112.093 425.608C112.093 426.508 111.931 427.3 111.607 427.984C111.283 428.668 110.821 429.196 110.221 429.568C109.633 429.94 108.955 430.126 108.187 430.126C107.527 430.126 106.945 429.988 106.441 429.712C105.937 429.424 105.553 429.016 105.289 428.488V432.502C105.289 432.754 105.205 432.952 105.037 433.096C104.881 433.252 104.671 433.33 104.407 433.33C104.131 433.33 103.903 433.252 103.723 433.096C103.555 432.94 103.471 432.73 103.471 432.466V421.918C103.471 421.654 103.555 421.444 103.723 421.288C103.891 421.12 104.113 421.036 104.389 421.036C104.653 421.036 104.869 421.12 105.037 421.288C105.205 421.444 105.289 421.654 105.289 421.918V422.656C105.553 422.128 105.937 421.72 106.441 421.432C106.945 421.144 107.527 421 108.187 421ZM107.755 428.686C108.547 428.686 109.159 428.422 109.591 427.894C110.023 427.354 110.239 426.592 110.239 425.608C110.239 424.612 110.017 423.838 109.573 423.286C109.141 422.734 108.535 422.458 107.755 422.458C106.963 422.458 106.351 422.728 105.919 423.268C105.499 423.808 105.289 424.576 105.289 425.572C105.289 426.568 105.499 427.336 105.919 427.876C106.351 428.416 106.963 428.686 107.755 428.686ZM120.982 427.786C121.15 427.786 121.288 427.852 121.396 427.984C121.504 428.116 121.558 428.284 121.558 428.488C121.558 428.836 121.342 429.13 120.91 429.37C120.49 429.61 120.028 429.796 119.524 429.928C119.032 430.06 118.558 430.126 118.102 430.126C116.71 430.126 115.612 429.724 114.808 428.92C114.004 428.104 113.602 426.994 113.602 425.59C113.602 424.69 113.776 423.892 114.124 423.196C114.484 422.5 114.982 421.96 115.618 421.576C116.266 421.192 116.998 421 117.814 421C118.99 421 119.92 421.378 120.604 422.134C121.288 422.89 121.63 423.91 121.63 425.194C121.63 425.674 121.414 425.914 120.982 425.914H115.42C115.54 427.774 116.434 428.704 118.102 428.704C118.546 428.704 118.93 428.644 119.254 428.524C119.578 428.404 119.92 428.248 120.28 428.056C120.316 428.032 120.412 427.984 120.568 427.912C120.736 427.828 120.874 427.786 120.982 427.786ZM117.85 422.332C117.154 422.332 116.596 422.554 116.176 422.998C115.756 423.442 115.504 424.066 115.42 424.87H120.064C120.028 424.054 119.818 423.43 119.434 422.998C119.062 422.554 118.534 422.332 117.85 422.332ZM128.241 421.036C128.817 421 129.105 421.246 129.105 421.774C129.105 422.038 129.039 422.236 128.907 422.368C128.775 422.5 128.547 422.578 128.223 422.602L127.683 422.656C126.927 422.728 126.363 422.992 125.991 423.448C125.631 423.904 125.451 424.456 125.451 425.104V429.226C125.451 429.514 125.367 429.73 125.199 429.874C125.031 430.018 124.815 430.09 124.551 430.09C124.287 430.09 124.065 430.018 123.885 429.874C123.717 429.73 123.633 429.514 123.633 429.226V421.9C123.633 421.624 123.717 421.414 123.885 421.27C124.065 421.114 124.287 421.036 124.551 421.036C124.791 421.036 124.989 421.114 125.145 421.27C125.313 421.414 125.397 421.618 125.397 421.882V422.746C125.637 422.218 125.985 421.816 126.441 421.54C126.897 421.264 127.413 421.102 127.989 421.054L128.241 421.036ZM133.862 421C135.026 421 135.89 421.294 136.454 421.882C137.03 422.47 137.318 423.364 137.318 424.564V429.226C137.318 429.502 137.24 429.718 137.084 429.874C136.928 430.018 136.712 430.09 136.436 430.09C136.172 430.09 135.962 430.012 135.806 429.856C135.65 429.7 135.572 429.49 135.572 429.226V428.56C135.344 429.064 135.002 429.454 134.546 429.73C134.102 429.994 133.58 430.126 132.98 430.126C132.404 430.126 131.876 430.012 131.396 429.784C130.928 429.544 130.556 429.22 130.28 428.812C130.004 428.404 129.866 427.942 129.866 427.426C129.854 426.778 130.016 426.274 130.352 425.914C130.688 425.542 131.234 425.278 131.99 425.122C132.746 424.954 133.796 424.87 135.14 424.87H135.554V424.348C135.554 423.676 135.416 423.19 135.14 422.89C134.864 422.59 134.42 422.44 133.808 422.44C133.388 422.44 132.992 422.494 132.62 422.602C132.248 422.71 131.84 422.866 131.396 423.07C131.072 423.25 130.844 423.34 130.712 423.34C130.532 423.34 130.382 423.274 130.262 423.142C130.154 423.01 130.1 422.842 130.1 422.638C130.1 422.458 130.148 422.302 130.244 422.17C130.352 422.026 130.52 421.888 130.748 421.756C131.168 421.528 131.66 421.348 132.224 421.216C132.788 421.072 133.334 421 133.862 421ZM133.304 428.776C133.964 428.776 134.504 428.554 134.924 428.11C135.344 427.654 135.554 427.072 135.554 426.364V425.896H135.23C134.294 425.896 133.574 425.938 133.07 426.022C132.566 426.106 132.206 426.25 131.99 426.454C131.774 426.646 131.666 426.928 131.666 427.3C131.666 427.732 131.822 428.086 132.134 428.362C132.446 428.638 132.836 428.776 133.304 428.776ZM144.539 421C146.639 421 147.689 422.182 147.689 424.546V429.226C147.689 429.502 147.605 429.718 147.437 429.874C147.281 430.018 147.059 430.09 146.771 430.09C146.495 430.09 146.273 430.012 146.105 429.856C145.949 429.7 145.871 429.49 145.871 429.226V424.636C145.871 423.892 145.721 423.346 145.421 422.998C145.133 422.65 144.677 422.476 144.053 422.476C143.321 422.476 142.733 422.704 142.289 423.16C141.845 423.616 141.623 424.228 141.623 424.996V429.226C141.623 429.49 141.539 429.7 141.371 429.856C141.215 430.012 140.999 430.09 140.723 430.09C140.447 430.09 140.225 430.012 140.057 429.856C139.889 429.7 139.805 429.49 139.805 429.226V421.9C139.805 421.648 139.889 421.444 140.057 421.288C140.237 421.12 140.459 421.036 140.723 421.036C140.987 421.036 141.197 421.114 141.353 421.27C141.509 421.426 141.587 421.63 141.587 421.882V422.62C141.875 422.092 142.277 421.69 142.793 421.414C143.309 421.138 143.891 421 144.539 421ZM157.358 417.22C157.634 417.22 157.856 417.298 158.024 417.454C158.192 417.61 158.276 417.82 158.276 418.084V429.208C158.276 429.484 158.192 429.7 158.024 429.856C157.868 430.012 157.652 430.09 157.376 430.09C157.1 430.09 156.878 430.012 156.71 429.856C156.554 429.7 156.476 429.484 156.476 429.208V428.488C156.212 429.016 155.828 429.424 155.324 429.712C154.82 429.988 154.238 430.126 153.578 430.126C152.822 430.126 152.144 429.934 151.544 429.55C150.956 429.166 150.494 428.626 150.158 427.93C149.834 427.234 149.672 426.436 149.672 425.536C149.672 424.624 149.834 423.826 150.158 423.142C150.494 422.458 150.956 421.93 151.544 421.558C152.132 421.186 152.81 421 153.578 421C154.238 421 154.814 421.144 155.306 421.432C155.81 421.708 156.194 422.104 156.458 422.62V418.048C156.458 417.796 156.536 417.598 156.692 417.454C156.86 417.298 157.082 417.22 157.358 417.22ZM154.01 428.686C154.79 428.686 155.396 428.416 155.828 427.876C156.26 427.336 156.476 426.568 156.476 425.572C156.476 424.576 156.26 423.808 155.828 423.268C155.408 422.728 154.802 422.458 154.01 422.458C153.218 422.458 152.6 422.728 152.156 423.268C151.724 423.796 151.508 424.552 151.508 425.536C151.508 426.52 151.73 427.294 152.174 427.858C152.618 428.41 153.23 428.686 154.01 428.686ZM164.627 430.126C163.763 430.126 163.001 429.94 162.341 429.568C161.693 429.196 161.189 428.668 160.829 427.984C160.481 427.288 160.307 426.484 160.307 425.572C160.307 424.648 160.481 423.844 160.829 423.16C161.189 422.464 161.693 421.93 162.341 421.558C163.001 421.186 163.763 421 164.627 421C165.491 421 166.247 421.186 166.895 421.558C167.555 421.93 168.059 422.464 168.407 423.16C168.767 423.844 168.947 424.648 168.947 425.572C168.947 426.484 168.767 427.288 168.407 427.984C168.059 428.668 167.555 429.196 166.895 429.568C166.247 429.94 165.491 430.126 164.627 430.126ZM164.627 428.686C165.431 428.686 166.043 428.422 166.463 427.894C166.895 427.366 167.111 426.592 167.111 425.572C167.111 424.564 166.895 423.796 166.463 423.268C166.031 422.728 165.419 422.458 164.627 422.458C163.835 422.458 163.223 422.728 162.791 423.268C162.359 423.796 162.143 424.564 162.143 425.572C162.143 426.592 162.353 427.366 162.773 427.894C163.205 428.422 163.823 428.686 164.627 428.686ZM179.407 421C180.571 421 181.435 421.294 181.999 421.882C182.575 422.47 182.863 423.364 182.863 424.564V429.226C182.863 429.502 182.785 429.718 182.629 429.874C182.473 430.018 182.257 430.09 181.981 430.09C181.717 430.09 181.507 430.012 181.351 429.856C181.195 429.7 181.117 429.49 181.117 429.226V428.56C180.889 429.064 180.547 429.454 180.091 429.73C179.647 429.994 179.125 430.126 178.525 430.126C177.949 430.126 177.421 430.012 176.941 429.784C176.473 429.544 176.101 429.22 175.825 428.812C175.549 428.404 175.411 427.942 175.411 427.426C175.399 426.778 175.561 426.274 175.897 425.914C176.233 425.542 176.779 425.278 177.535 425.122C178.291 424.954 179.341 424.87 180.685 424.87H181.099V424.348C181.099 423.676 180.961 423.19 180.685 422.89C180.409 422.59 179.965 422.44 179.353 422.44C178.933 422.44 178.537 422.494 178.165 422.602C177.793 422.71 177.385 422.866 176.941 423.07C176.617 423.25 176.389 423.34 176.257 423.34C176.077 423.34 175.927 423.274 175.807 423.142C175.699 423.01 175.645 422.842 175.645 422.638C175.645 422.458 175.693 422.302 175.789 422.17C175.897 422.026 176.065 421.888 176.293 421.756C176.713 421.528 177.205 421.348 177.769 421.216C178.333 421.072 178.879 421 179.407 421ZM178.849 428.776C179.509 428.776 180.049 428.554 180.469 428.11C180.889 427.654 181.099 427.072 181.099 426.364V425.896H180.775C179.839 425.896 179.119 425.938 178.615 426.022C178.111 426.106 177.751 426.25 177.535 426.454C177.319 426.646 177.211 426.928 177.211 427.3C177.211 427.732 177.367 428.086 177.679 428.362C177.991 428.638 178.381 428.776 178.849 428.776ZM193.156 430.126C191.932 430.126 190.93 429.874 190.15 429.37C189.934 429.238 189.778 429.1 189.682 428.956C189.598 428.812 189.556 428.65 189.556 428.47C189.556 428.278 189.61 428.116 189.718 427.984C189.826 427.852 189.964 427.786 190.132 427.786C190.288 427.786 190.534 427.882 190.87 428.074C191.23 428.266 191.578 428.422 191.914 428.542C192.262 428.662 192.694 428.722 193.21 428.722C193.786 428.722 194.236 428.62 194.56 428.416C194.884 428.212 195.046 427.924 195.046 427.552C195.046 427.312 194.98 427.12 194.848 426.976C194.728 426.832 194.512 426.706 194.2 426.598C193.888 426.478 193.426 426.352 192.814 426.22C191.758 425.992 190.996 425.686 190.528 425.302C190.072 424.906 189.844 424.372 189.844 423.7C189.844 423.184 189.994 422.722 190.294 422.314C190.594 421.894 191.008 421.57 191.536 421.342C192.064 421.114 192.664 421 193.336 421C193.816 421 194.284 421.066 194.74 421.198C195.196 421.318 195.598 421.498 195.946 421.738C196.342 422.002 196.54 422.308 196.54 422.656C196.54 422.848 196.48 423.01 196.36 423.142C196.252 423.274 196.12 423.34 195.964 423.34C195.856 423.34 195.748 423.316 195.64 423.268C195.532 423.22 195.388 423.142 195.208 423.034C194.884 422.842 194.578 422.692 194.29 422.584C194.014 422.476 193.666 422.422 193.246 422.422C192.742 422.422 192.334 422.53 192.022 422.746C191.722 422.962 191.572 423.256 191.572 423.628C191.572 423.964 191.71 424.228 191.986 424.42C192.274 424.6 192.808 424.774 193.588 424.942C194.392 425.11 195.022 425.302 195.478 425.518C195.934 425.734 196.258 426.004 196.45 426.328C196.654 426.64 196.756 427.042 196.756 427.534C196.756 428.314 196.426 428.944 195.766 429.424C195.118 429.892 194.248 430.126 193.156 430.126ZM205.584 421.036C205.86 421.036 206.076 421.114 206.232 421.27C206.4 421.426 206.484 421.642 206.484 421.918V429.244C206.484 429.496 206.4 429.7 206.232 429.856C206.064 430.012 205.842 430.09 205.566 430.09C205.314 430.09 205.11 430.018 204.954 429.874C204.798 429.718 204.72 429.514 204.72 429.262V428.578C204.444 429.082 204.06 429.466 203.568 429.73C203.088 429.994 202.548 430.126 201.948 430.126C199.812 430.126 198.744 428.95 198.744 426.598V421.918C198.744 421.642 198.822 421.426 198.978 421.27C199.146 421.114 199.374 421.036 199.662 421.036C199.938 421.036 200.154 421.114 200.31 421.27C200.478 421.426 200.562 421.642 200.562 421.918V426.58C200.562 427.288 200.706 427.81 200.994 428.146C201.282 428.482 201.726 428.65 202.326 428.65C203.034 428.65 203.598 428.422 204.018 427.966C204.45 427.51 204.666 426.904 204.666 426.148V421.918C204.666 421.654 204.75 421.444 204.918 421.288C205.086 421.12 205.308 421.036 205.584 421.036ZM212.718 421C213.882 421 214.746 421.294 215.31 421.882C215.886 422.47 216.174 423.364 216.174 424.564V429.226C216.174 429.502 216.096 429.718 215.94 429.874C215.784 430.018 215.568 430.09 215.292 430.09C215.028 430.09 214.818 430.012 214.662 429.856C214.506 429.7 214.428 429.49 214.428 429.226V428.56C214.2 429.064 213.858 429.454 213.402 429.73C212.958 429.994 212.436 430.126 211.836 430.126C211.26 430.126 210.732 430.012 210.252 429.784C209.784 429.544 209.412 429.22 209.136 428.812C208.86 428.404 208.722 427.942 208.722 427.426C208.71 426.778 208.872 426.274 209.208 425.914C209.544 425.542 210.09 425.278 210.846 425.122C211.602 424.954 212.652 424.87 213.996 424.87H214.41V424.348C214.41 423.676 214.272 423.19 213.996 422.89C213.72 422.59 213.276 422.44 212.664 422.44C212.244 422.44 211.848 422.494 211.476 422.602C211.104 422.71 210.696 422.866 210.252 423.07C209.928 423.25 209.7 423.34 209.568 423.34C209.388 423.34 209.238 423.274 209.118 423.142C209.01 423.01 208.956 422.842 208.956 422.638C208.956 422.458 209.004 422.302 209.1 422.17C209.208 422.026 209.376 421.888 209.604 421.756C210.024 421.528 210.516 421.348 211.08 421.216C211.644 421.072 212.19 421 212.718 421ZM212.16 428.776C212.82 428.776 213.36 428.554 213.78 428.11C214.2 427.654 214.41 427.072 214.41 426.364V425.896H214.086C213.15 425.896 212.43 425.938 211.926 426.022C211.422 426.106 211.062 426.25 210.846 426.454C210.63 426.646 210.522 426.928 210.522 427.3C210.522 427.732 210.678 428.086 210.99 428.362C211.302 428.638 211.692 428.776 212.16 428.776ZM229.652 421.576C229.724 421.396 229.826 421.264 229.958 421.18C230.102 421.096 230.252 421.054 230.408 421.054C230.636 421.054 230.834 421.132 231.002 421.288C231.182 421.444 231.272 421.63 231.272 421.846C231.272 421.966 231.248 422.08 231.2 422.188L227.762 429.478C227.678 429.67 227.546 429.82 227.366 429.928C227.198 430.024 227.018 430.072 226.826 430.072C226.634 430.072 226.448 430.024 226.268 429.928C226.1 429.82 225.974 429.67 225.89 429.478L222.452 422.188C222.404 422.092 222.38 421.978 222.38 421.846C222.38 421.63 222.476 421.444 222.668 421.288C222.86 421.132 223.076 421.054 223.316 421.054C223.664 421.054 223.922 421.222 224.09 421.558L226.88 427.75L229.652 421.576ZM233.94 430.09C233.676 430.09 233.454 430.018 233.274 429.874C233.106 429.73 233.022 429.514 233.022 429.226V421.918C233.022 421.63 233.106 421.414 233.274 421.27C233.454 421.114 233.676 421.036 233.94 421.036C234.204 421.036 234.42 421.114 234.588 421.27C234.756 421.414 234.84 421.63 234.84 421.918V429.226C234.84 429.514 234.756 429.73 234.588 429.874C234.42 430.018 234.204 430.09 233.94 430.09ZM233.94 419.272C233.592 419.272 233.316 419.176 233.112 418.984C232.908 418.792 232.806 418.54 232.806 418.228C232.806 417.916 232.908 417.67 233.112 417.49C233.316 417.298 233.592 417.202 233.94 417.202C234.276 417.202 234.546 417.298 234.75 417.49C234.966 417.67 235.074 417.916 235.074 418.228C235.074 418.54 234.972 418.792 234.768 418.984C234.564 419.176 234.288 419.272 233.94 419.272ZM240.441 430.126C239.217 430.126 238.215 429.874 237.435 429.37C237.219 429.238 237.063 429.1 236.967 428.956C236.883 428.812 236.841 428.65 236.841 428.47C236.841 428.278 236.895 428.116 237.003 427.984C237.111 427.852 237.249 427.786 237.417 427.786C237.573 427.786 237.819 427.882 238.155 428.074C238.515 428.266 238.863 428.422 239.199 428.542C239.547 428.662 239.979 428.722 240.495 428.722C241.071 428.722 241.521 428.62 241.845 428.416C242.169 428.212 242.331 427.924 242.331 427.552C242.331 427.312 242.265 427.12 242.133 426.976C242.013 426.832 241.797 426.706 241.485 426.598C241.173 426.478 240.711 426.352 240.099 426.22C239.043 425.992 238.281 425.686 237.813 425.302C237.357 424.906 237.129 424.372 237.129 423.7C237.129 423.184 237.279 422.722 237.579 422.314C237.879 421.894 238.293 421.57 238.821 421.342C239.349 421.114 239.949 421 240.621 421C241.101 421 241.569 421.066 242.025 421.198C242.481 421.318 242.883 421.498 243.231 421.738C243.627 422.002 243.825 422.308 243.825 422.656C243.825 422.848 243.765 423.01 243.645 423.142C243.537 423.274 243.405 423.34 243.249 423.34C243.141 423.34 243.033 423.316 242.925 423.268C242.817 423.22 242.673 423.142 242.493 423.034C242.169 422.842 241.863 422.692 241.575 422.584C241.299 422.476 240.951 422.422 240.531 422.422C240.027 422.422 239.619 422.53 239.307 422.746C239.007 422.962 238.857 423.256 238.857 423.628C238.857 423.964 238.995 424.228 239.271 424.42C239.559 424.6 240.093 424.774 240.873 424.942C241.677 425.11 242.307 425.302 242.763 425.518C243.219 425.734 243.543 426.004 243.735 426.328C243.939 426.64 244.041 427.042 244.041 427.534C244.041 428.314 243.711 428.944 243.051 429.424C242.403 429.892 241.533 430.126 240.441 430.126ZM246.983 430.09C246.719 430.09 246.497 430.018 246.317 429.874C246.149 429.73 246.065 429.514 246.065 429.226V421.918C246.065 421.63 246.149 421.414 246.317 421.27C246.497 421.114 246.719 421.036 246.983 421.036C247.247 421.036 247.463 421.114 247.631 421.27C247.799 421.414 247.883 421.63 247.883 421.918V429.226C247.883 429.514 247.799 429.73 247.631 429.874C247.463 430.018 247.247 430.09 246.983 430.09ZM246.983 419.272C246.635 419.272 246.359 419.176 246.155 418.984C245.951 418.792 245.849 418.54 245.849 418.228C245.849 417.916 245.951 417.67 246.155 417.49C246.359 417.298 246.635 417.202 246.983 417.202C247.319 417.202 247.589 417.298 247.793 417.49C248.009 417.67 248.117 417.916 248.117 418.228C248.117 418.54 248.015 418.792 247.811 418.984C247.607 419.176 247.331 419.272 246.983 419.272ZM254.972 428.704C255.236 428.728 255.422 428.8 255.53 428.92C255.65 429.028 255.71 429.184 255.71 429.388C255.71 429.628 255.614 429.814 255.422 429.946C255.242 430.066 254.972 430.114 254.612 430.09L254.126 430.054C253.154 429.982 252.428 429.688 251.948 429.172C251.468 428.644 251.228 427.87 251.228 426.85V422.62H250.148C249.62 422.62 249.356 422.386 249.356 421.918C249.356 421.702 249.422 421.534 249.554 421.414C249.698 421.282 249.896 421.216 250.148 421.216H251.228V419.362C251.228 419.086 251.306 418.87 251.462 418.714C251.63 418.558 251.852 418.48 252.128 418.48C252.404 418.48 252.626 418.558 252.794 418.714C252.962 418.87 253.046 419.086 253.046 419.362V421.216H254.828C255.08 421.216 255.272 421.282 255.404 421.414C255.548 421.534 255.62 421.702 255.62 421.918C255.62 422.146 255.548 422.32 255.404 422.44C255.272 422.56 255.08 422.62 254.828 422.62H253.046V426.976C253.046 427.54 253.16 427.954 253.388 428.218C253.628 428.482 253.988 428.632 254.468 428.668L254.972 428.704ZM260.706 421C261.87 421 262.734 421.294 263.298 421.882C263.874 422.47 264.162 423.364 264.162 424.564V429.226C264.162 429.502 264.084 429.718 263.928 429.874C263.772 430.018 263.556 430.09 263.28 430.09C263.016 430.09 262.806 430.012 262.65 429.856C262.494 429.7 262.416 429.49 262.416 429.226V428.56C262.188 429.064 261.846 429.454 261.39 429.73C260.946 429.994 260.424 430.126 259.824 430.126C259.248 430.126 258.72 430.012 258.24 429.784C257.772 429.544 257.4 429.22 257.124 428.812C256.848 428.404 256.71 427.942 256.71 427.426C256.698 426.778 256.86 426.274 257.196 425.914C257.532 425.542 258.078 425.278 258.834 425.122C259.59 424.954 260.64 424.87 261.984 424.87H262.398V424.348C262.398 423.676 262.26 423.19 261.984 422.89C261.708 422.59 261.264 422.44 260.652 422.44C260.232 422.44 259.836 422.494 259.464 422.602C259.092 422.71 258.684 422.866 258.24 423.07C257.916 423.25 257.688 423.34 257.556 423.34C257.376 423.34 257.226 423.274 257.106 423.142C256.998 423.01 256.944 422.842 256.944 422.638C256.944 422.458 256.992 422.302 257.088 422.17C257.196 422.026 257.364 421.888 257.592 421.756C258.012 421.528 258.504 421.348 259.068 421.216C259.632 421.072 260.178 421 260.706 421ZM260.148 428.776C260.808 428.776 261.348 428.554 261.768 428.11C262.188 427.654 262.398 427.072 262.398 426.364V425.896H262.074C261.138 425.896 260.418 425.938 259.914 426.022C259.41 426.106 259.05 426.25 258.834 426.454C258.618 426.646 258.51 426.928 258.51 427.3C258.51 427.732 258.666 428.086 258.978 428.362C259.29 428.638 259.68 428.776 260.148 428.776ZM272.277 423.358C271.953 423.358 271.677 423.25 271.449 423.034C271.233 422.818 271.125 422.542 271.125 422.206C271.125 421.87 271.233 421.594 271.449 421.378C271.677 421.15 271.953 421.036 272.277 421.036C272.601 421.036 272.871 421.15 273.087 421.378C273.303 421.594 273.411 421.87 273.411 422.206C273.411 422.542 273.303 422.818 273.087 423.034C272.871 423.25 272.601 423.358 272.277 423.358ZM272.277 430.09C271.953 430.09 271.677 429.982 271.449 429.766C271.233 429.55 271.125 429.274 271.125 428.938C271.125 428.602 271.233 428.326 271.449 428.11C271.677 427.882 271.953 427.768 272.277 427.768C272.601 427.768 272.871 427.882 273.087 428.11C273.303 428.326 273.411 428.602 273.411 428.938C273.411 429.274 273.303 429.55 273.087 429.766C272.871 429.982 272.601 430.09 272.277 430.09ZM276.638 432.808C276.53 432.976 276.404 433.102 276.26 433.186C276.116 433.282 275.966 433.33 275.81 433.33C275.63 433.33 275.48 433.276 275.36 433.168C275.252 433.072 275.198 432.934 275.198 432.754C275.198 432.622 275.222 432.502 275.27 432.394C276.218 430.102 276.692 427.726 276.692 425.266C276.692 422.794 276.218 420.412 275.27 418.12C275.222 418.012 275.198 417.892 275.198 417.76C275.198 417.592 275.258 417.454 275.378 417.346C275.498 417.238 275.642 417.184 275.81 417.184C275.966 417.184 276.116 417.232 276.26 417.328C276.404 417.412 276.53 417.538 276.638 417.706C277.91 420.07 278.546 422.59 278.546 425.266C278.546 427.954 277.91 430.468 276.638 432.808Z" fill="white"/>
<path d="M144 98.271V123.694C144 133.784 135.557 141.965 125.142 141.965H123.235L113.494 151.396C113.113 151.766 112.585 152 112 152C111.46 152 110.97 151.809 110.595 151.489L110.43 151.329L110.423 151.322L100.765 141.965H98.8516C88.4435 141.965 80 133.784 80 123.694V98.271C80 88.1807 88.4435 80 98.8579 80H125.142C135.557 80 144 88.1807 144 98.271Z" fill="#FFD666"/>
<path d="M94.2697 115.219C92.4132 115.219 91.355 117.269 92.4322 118.749C96.6205 124.514 103.546 128.273 111.372 128.273C119.197 128.273 126.117 124.508 130.305 118.749C131.382 117.269 130.324 115.219 128.467 115.219H94.2697Z" fill="white"/>
<path d="M105.143 106.494H93.9405V101.02C93.9405 97.9976 96.4497 95.5454 99.5419 95.5454C102.634 95.5454 105.143 97.9976 105.143 101.02V106.494Z" fill="white"/>
<path d="M128.803 106.494H117.6V101.02C117.6 97.9976 120.109 95.5454 123.202 95.5454C126.294 95.5454 128.803 97.9976 128.803 101.02V106.494Z" fill="white"/>
<path d="M95.664 702.218C95.844 702.482 95.934 702.74 95.934 702.992C95.934 703.328 95.796 703.604 95.52 703.82C95.256 704.036 94.944 704.144 94.584 704.144C94.356 704.144 94.134 704.09 93.918 703.982C93.702 703.874 93.522 703.706 93.378 703.478L91.002 699.95C90.798 699.638 90.582 699.416 90.354 699.284C90.126 699.14 89.838 699.068 89.49 699.068H88.032V702.704C88.032 703.136 87.906 703.478 87.654 703.73C87.414 703.982 87.084 704.108 86.664 704.108C86.232 704.108 85.89 703.982 85.638 703.73C85.386 703.478 85.26 703.136 85.26 702.704V692.624C85.26 692.204 85.374 691.88 85.602 691.652C85.83 691.424 86.154 691.31 86.574 691.31H91.092C92.58 691.31 93.702 691.64 94.458 692.3C95.226 692.948 95.61 693.89 95.61 695.126C95.61 696.098 95.34 696.908 94.8 697.556C94.26 698.204 93.498 698.63 92.514 698.834C92.874 698.906 93.192 699.05 93.468 699.266C93.756 699.47 94.032 699.77 94.296 700.166L95.664 702.218ZM90.678 696.944C91.482 696.944 92.064 696.806 92.424 696.53C92.784 696.242 92.964 695.798 92.964 695.198C92.964 694.586 92.784 694.142 92.424 693.866C92.064 693.59 91.482 693.452 90.678 693.452H87.996V696.944H90.678ZM99.0331 704.108C98.6371 704.108 98.3071 704 98.0431 703.784C97.7911 703.568 97.6651 703.25 97.6651 702.83V696.26C97.6651 695.84 97.7971 695.522 98.0611 695.306C98.3251 695.09 98.6491 694.982 99.0331 694.982C99.4171 694.982 99.7351 695.09 99.9871 695.306C100.251 695.522 100.383 695.84 100.383 696.26V702.83C100.383 703.25 100.251 703.568 99.9871 703.784C99.7351 704 99.4171 704.108 99.0331 704.108ZM99.0331 693.542C98.5531 693.542 98.1751 693.422 97.8991 693.182C97.6231 692.93 97.4851 692.594 97.4851 692.174C97.4851 691.754 97.6231 691.424 97.8991 691.184C98.1751 690.944 98.5531 690.824 99.0331 690.824C99.5011 690.824 99.8731 690.95 100.149 691.202C100.437 691.442 100.581 691.766 100.581 692.174C100.581 692.594 100.443 692.93 100.167 693.182C99.8911 693.422 99.5131 693.542 99.0331 693.542ZM106.712 704.144C105.776 704.144 104.954 703.958 104.246 703.586C103.538 703.202 102.992 702.668 102.608 701.984C102.224 701.288 102.032 700.472 102.032 699.536C102.032 698.6 102.224 697.79 102.608 697.106C102.992 696.41 103.538 695.876 104.246 695.504C104.954 695.132 105.776 694.946 106.712 694.946C107.648 694.946 108.47 695.132 109.178 695.504C109.886 695.876 110.432 696.41 110.816 697.106C111.2 697.79 111.392 698.6 111.392 699.536C111.392 700.472 111.2 701.288 110.816 701.984C110.432 702.668 109.886 703.202 109.178 703.586C108.47 703.958 107.648 704.144 106.712 704.144ZM106.712 702.074C108.032 702.074 108.692 701.228 108.692 699.536C108.692 698.684 108.518 698.048 108.17 697.628C107.834 697.208 107.348 696.998 106.712 696.998C105.392 696.998 104.732 697.844 104.732 699.536C104.732 701.228 105.392 702.074 106.712 702.074ZM125.615 691.22C126.035 691.22 126.371 691.334 126.623 691.562C126.887 691.79 127.019 692.09 127.019 692.462V702.83C127.019 703.214 126.893 703.526 126.641 703.766C126.401 703.994 126.077 704.108 125.669 704.108C125.261 704.108 124.931 703.994 124.679 703.766C124.439 703.526 124.319 703.214 124.319 702.83V702.686C124.055 703.142 123.677 703.502 123.185 703.766C122.705 704.018 122.159 704.144 121.547 704.144C120.791 704.144 120.113 703.952 119.513 703.568C118.925 703.172 118.463 702.626 118.127 701.93C117.803 701.222 117.641 700.412 117.641 699.5C117.641 698.588 117.803 697.79 118.127 697.106C118.463 696.41 118.925 695.876 119.513 695.504C120.101 695.132 120.779 694.946 121.547 694.946C122.147 694.946 122.687 695.072 123.167 695.324C123.659 695.576 124.037 695.93 124.301 696.386V692.408C124.301 692.048 124.421 691.76 124.661 691.544C124.901 691.328 125.219 691.22 125.615 691.22ZM122.339 702.074C122.975 702.074 123.461 701.858 123.797 701.426C124.145 700.982 124.319 700.352 124.319 699.536C124.319 698.72 124.145 698.096 123.797 697.664C123.461 697.232 122.975 697.016 122.339 697.016C121.703 697.016 121.211 697.232 120.863 697.664C120.515 698.084 120.341 698.696 120.341 699.5C120.341 700.316 120.515 700.952 120.863 701.408C121.211 701.852 121.703 702.074 122.339 702.074ZM133.36 704.144C132.424 704.144 131.602 703.958 130.894 703.586C130.186 703.202 129.64 702.668 129.256 701.984C128.872 701.288 128.68 700.472 128.68 699.536C128.68 698.6 128.872 697.79 129.256 697.106C129.64 696.41 130.186 695.876 130.894 695.504C131.602 695.132 132.424 694.946 133.36 694.946C134.296 694.946 135.118 695.132 135.826 695.504C136.534 695.876 137.08 696.41 137.464 697.106C137.848 697.79 138.04 698.6 138.04 699.536C138.04 700.472 137.848 701.288 137.464 701.984C137.08 702.668 136.534 703.202 135.826 703.586C135.118 703.958 134.296 704.144 133.36 704.144ZM133.36 702.074C134.68 702.074 135.34 701.228 135.34 699.536C135.34 698.684 135.166 698.048 134.818 697.628C134.482 697.208 133.996 696.998 133.36 696.998C132.04 696.998 131.38 697.844 131.38 699.536C131.38 701.228 132.04 702.074 133.36 702.074ZM149.51 704.162C148.562 704.162 147.68 704.054 146.864 703.838C146.048 703.61 145.382 703.292 144.866 702.884C144.686 702.752 144.554 702.614 144.47 702.47C144.398 702.314 144.362 702.122 144.362 701.894C144.362 701.594 144.452 701.33 144.632 701.102C144.824 700.874 145.04 700.76 145.28 700.76C145.412 700.76 145.538 700.784 145.658 700.832C145.79 700.868 145.946 700.94 146.126 701.048C146.642 701.372 147.164 701.612 147.692 701.768C148.22 701.912 148.802 701.984 149.438 701.984C150.23 701.984 150.836 701.852 151.256 701.588C151.676 701.324 151.886 700.946 151.886 700.454C151.886 700.082 151.688 699.782 151.292 699.554C150.908 699.326 150.218 699.11 149.222 698.906C148.106 698.678 147.212 698.402 146.54 698.078C145.88 697.754 145.394 697.352 145.082 696.872C144.782 696.392 144.632 695.81 144.632 695.126C144.632 694.37 144.848 693.692 145.28 693.092C145.724 692.48 146.33 692.006 147.098 691.67C147.878 691.322 148.754 691.148 149.726 691.148C151.43 691.148 152.834 691.574 153.938 692.426C154.118 692.57 154.244 692.72 154.316 692.876C154.4 693.02 154.442 693.2 154.442 693.416C154.442 693.716 154.346 693.98 154.154 694.208C153.974 694.436 153.764 694.55 153.524 694.55C153.392 694.55 153.266 694.532 153.146 694.496C153.038 694.46 152.882 694.382 152.678 694.262C152.186 693.95 151.73 693.716 151.31 693.56C150.902 693.404 150.38 693.326 149.744 693.326C149.012 693.326 148.436 693.47 148.016 693.758C147.596 694.034 147.386 694.418 147.386 694.91C147.386 695.198 147.464 695.438 147.62 695.63C147.788 695.81 148.058 695.972 148.43 696.116C148.814 696.26 149.354 696.41 150.05 696.566C151.682 696.926 152.852 697.388 153.56 697.952C154.28 698.516 154.64 699.29 154.64 700.274C154.64 701.042 154.424 701.72 153.992 702.308C153.572 702.896 152.972 703.352 152.192 703.676C151.424 704 150.53 704.162 149.51 704.162ZM163.592 694.982C164.012 694.982 164.342 695.096 164.582 695.324C164.834 695.552 164.96 695.864 164.96 696.26V702.866C164.96 703.238 164.828 703.538 164.564 703.766C164.312 703.994 163.982 704.108 163.574 704.108C163.19 704.108 162.884 704 162.656 703.784C162.428 703.568 162.314 703.28 162.314 702.92V702.74C162.038 703.196 161.672 703.544 161.216 703.784C160.772 704.024 160.268 704.144 159.704 704.144C158.588 704.144 157.754 703.838 157.202 703.226C156.662 702.602 156.392 701.666 156.392 700.418V696.26C156.392 695.864 156.512 695.552 156.752 695.324C157.004 695.096 157.34 694.982 157.76 694.982C158.18 694.982 158.51 695.096 158.75 695.324C158.99 695.552 159.11 695.864 159.11 696.26V700.472C159.11 701 159.218 701.39 159.434 701.642C159.662 701.894 160.004 702.02 160.46 702.02C160.988 702.02 161.414 701.84 161.738 701.48C162.074 701.12 162.242 700.646 162.242 700.058V696.26C162.242 695.864 162.362 695.552 162.602 695.324C162.842 695.096 163.172 694.982 163.592 694.982ZM168.414 704.108C168.018 704.108 167.688 704 167.424 703.784C167.172 703.568 167.046 703.25 167.046 702.83V692.498C167.046 692.078 167.172 691.76 167.424 691.544C167.688 691.328 168.018 691.22 168.414 691.22C168.798 691.22 169.116 691.328 169.368 691.544C169.632 691.76 169.764 692.078 169.764 692.498V702.83C169.764 703.25 169.632 703.568 169.368 703.784C169.116 704 168.798 704.108 168.414 704.108ZM89.67 732.144C88.758 732.144 87.888 732.018 87.06 731.766C86.244 731.514 85.59 731.166 85.098 730.722C84.87 730.53 84.756 730.284 84.756 729.984C84.756 729.768 84.816 729.588 84.936 729.444C85.056 729.288 85.2 729.21 85.368 729.21C85.536 729.21 85.74 729.288 85.98 729.444C87.048 730.236 88.266 730.632 89.634 730.632C90.594 730.632 91.332 730.452 91.848 730.092C92.364 729.732 92.622 729.216 92.622 728.544C92.622 728.016 92.382 727.62 91.902 727.356C91.422 727.092 90.654 726.84 89.598 726.6C88.59 726.384 87.762 726.138 87.114 725.862C86.466 725.586 85.956 725.214 85.584 724.746C85.224 724.266 85.044 723.66 85.044 722.928C85.044 722.196 85.242 721.548 85.638 720.984C86.046 720.408 86.61 719.964 87.33 719.652C88.05 719.328 88.872 719.166 89.796 719.166C90.648 719.166 91.434 719.286 92.154 719.526C92.874 719.766 93.486 720.12 93.99 720.588C94.23 720.792 94.35 721.038 94.35 721.326C94.35 721.53 94.284 721.71 94.152 721.866C94.032 722.022 93.888 722.1 93.72 722.1C93.564 722.1 93.366 722.022 93.126 721.866C92.574 721.446 92.052 721.146 91.56 720.966C91.08 720.774 90.498 720.678 89.814 720.678C88.89 720.678 88.17 720.87 87.654 721.254C87.138 721.626 86.88 722.148 86.88 722.82C86.88 723.396 87.108 723.834 87.564 724.134C88.02 724.422 88.752 724.686 89.76 724.926C90.816 725.166 91.668 725.418 92.316 725.682C92.976 725.934 93.498 726.288 93.882 726.744C94.278 727.188 94.476 727.764 94.476 728.472C94.476 729.192 94.272 729.834 93.864 730.398C93.468 730.95 92.904 731.382 92.172 731.694C91.452 731.994 90.618 732.144 89.67 732.144ZM100.235 723C101.399 723 102.263 723.294 102.827 723.882C103.403 724.47 103.691 725.364 103.691 726.564V731.226C103.691 731.502 103.613 731.718 103.457 731.874C103.301 732.018 103.085 732.09 102.809 732.09C102.545 732.09 102.335 732.012 102.179 731.856C102.023 731.7 101.945 731.49 101.945 731.226V730.56C101.717 731.064 101.375 731.454 100.919 731.73C100.475 731.994 99.9532 732.126 99.3532 732.126C98.7772 732.126 98.2492 732.012 97.7692 731.784C97.3012 731.544 96.9292 731.22 96.6532 730.812C96.3772 730.404 96.2392 729.942 96.2392 729.426C96.2272 728.778 96.3892 728.274 96.7252 727.914C97.0612 727.542 97.6072 727.278 98.3632 727.122C99.1192 726.954 100.169 726.87 101.513 726.87H101.927V726.348C101.927 725.676 101.789 725.19 101.513 724.89C101.237 724.59 100.793 724.44 100.181 724.44C99.7612 724.44 99.3652 724.494 98.9932 724.602C98.6212 724.71 98.2132 724.866 97.7692 725.07C97.4452 725.25 97.2172 725.34 97.0852 725.34C96.9052 725.34 96.7552 725.274 96.6352 725.142C96.5272 725.01 96.4732 724.842 96.4732 724.638C96.4732 724.458 96.5212 724.302 96.6172 724.17C96.7252 724.026 96.8932 723.888 97.1212 723.756C97.5412 723.528 98.0332 723.348 98.5972 723.216C99.1612 723.072 99.7072 723 100.235 723ZM99.6772 730.776C100.337 730.776 100.877 730.554 101.297 730.11C101.717 729.654 101.927 729.072 101.927 728.364V727.896H101.603C100.667 727.896 99.9472 727.938 99.4432 728.022C98.9392 728.106 98.5792 728.25 98.3632 728.454C98.1472 728.646 98.0392 728.928 98.0392 729.3C98.0392 729.732 98.1952 730.086 98.5072 730.362C98.8192 730.638 99.2092 730.776 99.6772 730.776ZM110.912 723C113.012 723 114.062 724.182 114.062 726.546V731.226C114.062 731.502 113.978 731.718 113.81 731.874C113.654 732.018 113.432 732.09 113.144 732.09C112.868 732.09 112.646 732.012 112.478 731.856C112.322 731.7 112.244 731.49 112.244 731.226V726.636C112.244 725.892 112.094 725.346 111.794 724.998C111.506 724.65 111.05 724.476 110.426 724.476C109.694 724.476 109.106 724.704 108.662 725.16C108.218 725.616 107.996 726.228 107.996 726.996V731.226C107.996 731.49 107.912 731.7 107.744 731.856C107.588 732.012 107.372 732.09 107.096 732.09C106.82 732.09 106.598 732.012 106.43 731.856C106.262 731.7 106.178 731.49 106.178 731.226V723.9C106.178 723.648 106.262 723.444 106.43 723.288C106.61 723.12 106.832 723.036 107.096 723.036C107.36 723.036 107.57 723.114 107.726 723.27C107.882 723.426 107.96 723.63 107.96 723.882V724.62C108.248 724.092 108.65 723.69 109.166 723.414C109.682 723.138 110.264 723 110.912 723ZM120.851 730.704C121.115 730.728 121.301 730.8 121.409 730.92C121.529 731.028 121.589 731.184 121.589 731.388C121.589 731.628 121.493 731.814 121.301 731.946C121.121 732.066 120.851 732.114 120.491 732.09L120.005 732.054C119.033 731.982 118.307 731.688 117.827 731.172C117.347 730.644 117.107 729.87 117.107 728.85V724.62H116.027C115.499 724.62 115.235 724.386 115.235 723.918C115.235 723.702 115.301 723.534 115.433 723.414C115.577 723.282 115.775 723.216 116.027 723.216H117.107V721.362C117.107 721.086 117.185 720.87 117.341 720.714C117.509 720.558 117.731 720.48 118.007 720.48C118.283 720.48 118.505 720.558 118.673 720.714C118.841 720.87 118.925 721.086 118.925 721.362V723.216H120.707C120.959 723.216 121.151 723.282 121.283 723.414C121.427 723.534 121.499 723.702 121.499 723.918C121.499 724.146 121.427 724.32 121.283 724.44C121.151 724.56 120.959 724.62 120.707 724.62H118.925V728.976C118.925 729.54 119.039 729.954 119.267 730.218C119.507 730.482 119.867 730.632 120.347 730.668L120.851 730.704ZM126.585 723C127.749 723 128.613 723.294 129.177 723.882C129.753 724.47 130.041 725.364 130.041 726.564V731.226C130.041 731.502 129.963 731.718 129.807 731.874C129.651 732.018 129.435 732.09 129.159 732.09C128.895 732.09 128.685 732.012 128.529 731.856C128.373 731.7 128.295 731.49 128.295 731.226V730.56C128.067 731.064 127.725 731.454 127.269 731.73C126.825 731.994 126.303 732.126 125.703 732.126C125.127 732.126 124.599 732.012 124.119 731.784C123.651 731.544 123.279 731.22 123.003 730.812C122.727 730.404 122.589 729.942 122.589 729.426C122.577 728.778 122.739 728.274 123.075 727.914C123.411 727.542 123.957 727.278 124.713 727.122C125.469 726.954 126.519 726.87 127.863 726.87H128.277V726.348C128.277 725.676 128.139 725.19 127.863 724.89C127.587 724.59 127.143 724.44 126.531 724.44C126.111 724.44 125.715 724.494 125.343 724.602C124.971 724.71 124.563 724.866 124.119 725.07C123.795 725.25 123.567 725.34 123.435 725.34C123.255 725.34 123.105 725.274 122.985 725.142C122.877 725.01 122.823 724.842 122.823 724.638C122.823 724.458 122.871 724.302 122.967 724.17C123.075 724.026 123.243 723.888 123.471 723.756C123.891 723.528 124.383 723.348 124.947 723.216C125.511 723.072 126.057 723 126.585 723ZM126.027 730.776C126.687 730.776 127.227 730.554 127.647 730.11C128.067 729.654 128.277 729.072 128.277 728.364V727.896H127.953C127.017 727.896 126.297 727.938 125.793 728.022C125.289 728.106 124.929 728.25 124.713 728.454C124.497 728.646 124.389 728.928 124.389 729.3C124.389 729.732 124.545 730.086 124.857 730.362C125.169 730.638 125.559 730.776 126.027 730.776ZM143.016 732.144C141.804 732.144 140.748 731.886 139.848 731.37C138.948 730.842 138.258 730.092 137.778 729.12C137.298 728.136 137.058 726.978 137.058 725.646C137.058 724.326 137.298 723.18 137.778 722.208C138.258 721.224 138.948 720.474 139.848 719.958C140.748 719.43 141.804 719.166 143.016 719.166C143.808 719.166 144.558 719.292 145.266 719.544C145.974 719.784 146.592 720.138 147.12 720.606C147.348 720.786 147.462 721.026 147.462 721.326C147.462 721.542 147.402 721.728 147.282 721.884C147.162 722.028 147.018 722.1 146.85 722.1C146.646 722.1 146.448 722.022 146.256 721.866C145.68 721.434 145.152 721.134 144.672 720.966C144.204 720.786 143.67 720.696 143.07 720.696C141.75 720.696 140.736 721.122 140.028 721.974C139.32 722.826 138.966 724.05 138.966 725.646C138.966 727.254 139.32 728.484 140.028 729.336C140.736 730.188 141.75 730.614 143.07 730.614C143.646 730.614 144.168 730.524 144.636 730.344C145.116 730.164 145.656 729.864 146.256 729.444C146.496 729.288 146.694 729.21 146.85 729.21C147.018 729.21 147.162 729.288 147.282 729.444C147.402 729.588 147.462 729.768 147.462 729.984C147.462 730.284 147.348 730.524 147.12 730.704C146.592 731.172 145.974 731.532 145.266 731.784C144.558 732.024 143.808 732.144 143.016 732.144ZM152.97 723C154.134 723 154.998 723.294 155.562 723.882C156.138 724.47 156.426 725.364 156.426 726.564V731.226C156.426 731.502 156.348 731.718 156.192 731.874C156.036 732.018 155.82 732.09 155.544 732.09C155.28 732.09 155.07 732.012 154.914 731.856C154.758 731.7 154.68 731.49 154.68 731.226V730.56C154.452 731.064 154.11 731.454 153.654 731.73C153.21 731.994 152.688 732.126 152.088 732.126C151.512 732.126 150.984 732.012 150.504 731.784C150.036 731.544 149.664 731.22 149.388 730.812C149.112 730.404 148.974 729.942 148.974 729.426C148.962 728.778 149.124 728.274 149.46 727.914C149.796 727.542 150.342 727.278 151.098 727.122C151.854 726.954 152.904 726.87 154.248 726.87H154.662V726.348C154.662 725.676 154.524 725.19 154.248 724.89C153.972 724.59 153.528 724.44 152.916 724.44C152.496 724.44 152.1 724.494 151.728 724.602C151.356 724.71 150.948 724.866 150.504 725.07C150.18 725.25 149.952 725.34 149.82 725.34C149.64 725.34 149.49 725.274 149.37 725.142C149.262 725.01 149.208 724.842 149.208 724.638C149.208 724.458 149.256 724.302 149.352 724.17C149.46 724.026 149.628 723.888 149.856 723.756C150.276 723.528 150.768 723.348 151.332 723.216C151.896 723.072 152.442 723 152.97 723ZM152.412 730.776C153.072 730.776 153.612 730.554 154.032 730.11C154.452 729.654 154.662 729.072 154.662 728.364V727.896H154.338C153.402 727.896 152.682 727.938 152.178 728.022C151.674 728.106 151.314 728.25 151.098 728.454C150.882 728.646 150.774 728.928 150.774 729.3C150.774 729.732 150.93 730.086 151.242 730.362C151.554 730.638 151.944 730.776 152.412 730.776ZM163.214 730.704C163.478 730.728 163.664 730.8 163.772 730.92C163.892 731.028 163.952 731.184 163.952 731.388C163.952 731.628 163.856 731.814 163.664 731.946C163.484 732.066 163.214 732.114 162.854 732.09L162.368 732.054C161.396 731.982 160.67 731.688 160.19 731.172C159.71 730.644 159.47 729.87 159.47 728.85V724.62H158.39C157.862 724.62 157.598 724.386 157.598 723.918C157.598 723.702 157.664 723.534 157.796 723.414C157.94 723.282 158.138 723.216 158.39 723.216H159.47V721.362C159.47 721.086 159.548 720.87 159.704 720.714C159.872 720.558 160.094 720.48 160.37 720.48C160.646 720.48 160.868 720.558 161.036 720.714C161.204 720.87 161.288 721.086 161.288 721.362V723.216H163.07C163.322 723.216 163.514 723.282 163.646 723.414C163.79 723.534 163.862 723.702 163.862 723.918C163.862 724.146 163.79 724.32 163.646 724.44C163.514 724.56 163.322 724.62 163.07 724.62H161.288V728.976C161.288 729.54 161.402 729.954 161.63 730.218C161.87 730.482 162.23 730.632 162.71 730.668L163.214 730.704ZM168.948 723C170.112 723 170.976 723.294 171.54 723.882C172.116 724.47 172.404 725.364 172.404 726.564V731.226C172.404 731.502 172.326 731.718 172.17 731.874C172.014 732.018 171.798 732.09 171.522 732.09C171.258 732.09 171.048 732.012 170.892 731.856C170.736 731.7 170.658 731.49 170.658 731.226V730.56C170.43 731.064 170.088 731.454 169.632 731.73C169.188 731.994 168.666 732.126 168.066 732.126C167.49 732.126 166.962 732.012 166.482 731.784C166.014 731.544 165.642 731.22 165.366 730.812C165.09 730.404 164.952 729.942 164.952 729.426C164.94 728.778 165.102 728.274 165.438 727.914C165.774 727.542 166.32 727.278 167.076 727.122C167.832 726.954 168.882 726.87 170.226 726.87H170.64V726.348C170.64 725.676 170.502 725.19 170.226 724.89C169.95 724.59 169.506 724.44 168.894 724.44C168.474 724.44 168.078 724.494 167.706 724.602C167.334 724.71 166.926 724.866 166.482 725.07C166.158 725.25 165.93 725.34 165.798 725.34C165.618 725.34 165.468 725.274 165.348 725.142C165.24 725.01 165.186 724.842 165.186 724.638C165.186 724.458 165.234 724.302 165.33 724.17C165.438 724.026 165.606 723.888 165.834 723.756C166.254 723.528 166.746 723.348 167.31 723.216C167.874 723.072 168.42 723 168.948 723ZM168.39 730.776C169.05 730.776 169.59 730.554 170.01 730.11C170.43 729.654 170.64 729.072 170.64 728.364V727.896H170.316C169.38 727.896 168.66 727.938 168.156 728.022C167.652 728.106 167.292 728.25 167.076 728.454C166.86 728.646 166.752 728.928 166.752 729.3C166.752 729.732 166.908 730.086 167.22 730.362C167.532 730.638 167.922 730.776 168.39 730.776ZM179.499 723.036C180.075 723 180.363 723.246 180.363 723.774C180.363 724.038 180.297 724.236 180.165 724.368C180.033 724.5 179.805 724.578 179.481 724.602L178.941 724.656C178.185 724.728 177.621 724.992 177.249 725.448C176.889 725.904 176.709 726.456 176.709 727.104V731.226C176.709 731.514 176.625 731.73 176.457 731.874C176.289 732.018 176.073 732.09 175.809 732.09C175.545 732.09 175.323 732.018 175.143 731.874C174.975 731.73 174.891 731.514 174.891 731.226V723.9C174.891 723.624 174.975 723.414 175.143 723.27C175.323 723.114 175.545 723.036 175.809 723.036C176.049 723.036 176.247 723.114 176.403 723.27C176.571 723.414 176.655 723.618 176.655 723.882V724.746C176.895 724.218 177.243 723.816 177.699 723.54C178.155 723.264 178.671 723.102 179.247 723.054L179.499 723.036ZM182.401 732.09C182.137 732.09 181.915 732.018 181.735 731.874C181.567 731.73 181.483 731.514 181.483 731.226V723.918C181.483 723.63 181.567 723.414 181.735 723.27C181.915 723.114 182.137 723.036 182.401 723.036C182.665 723.036 182.881 723.114 183.049 723.27C183.217 723.414 183.301 723.63 183.301 723.918V731.226C183.301 731.514 183.217 731.73 183.049 731.874C182.881 732.018 182.665 732.09 182.401 732.09ZM182.401 721.272C182.053 721.272 181.777 721.176 181.573 720.984C181.369 720.792 181.267 720.54 181.267 720.228C181.267 719.916 181.369 719.67 181.573 719.49C181.777 719.298 182.053 719.202 182.401 719.202C182.737 719.202 183.007 719.298 183.211 719.49C183.427 719.67 183.535 719.916 183.535 720.228C183.535 720.54 183.433 720.792 183.229 720.984C183.025 721.176 182.749 721.272 182.401 721.272ZM190.576 723C192.676 723 193.726 724.182 193.726 726.546V731.226C193.726 731.502 193.642 731.718 193.474 731.874C193.318 732.018 193.096 732.09 192.808 732.09C192.532 732.09 192.31 732.012 192.142 731.856C191.986 731.7 191.908 731.49 191.908 731.226V726.636C191.908 725.892 191.758 725.346 191.458 724.998C191.17 724.65 190.714 724.476 190.09 724.476C189.358 724.476 188.77 724.704 188.326 725.16C187.882 725.616 187.66 726.228 187.66 726.996V731.226C187.66 731.49 187.576 731.7 187.408 731.856C187.252 732.012 187.036 732.09 186.76 732.09C186.484 732.09 186.262 732.012 186.094 731.856C185.926 731.7 185.842 731.49 185.842 731.226V723.9C185.842 723.648 185.926 723.444 186.094 723.288C186.274 723.12 186.496 723.036 186.76 723.036C187.024 723.036 187.234 723.114 187.39 723.27C187.546 723.426 187.624 723.63 187.624 723.882V724.62C187.912 724.092 188.314 723.69 188.83 723.414C189.346 723.138 189.928 723 190.576 723ZM199.903 723C201.067 723 201.931 723.294 202.495 723.882C203.071 724.47 203.359 725.364 203.359 726.564V731.226C203.359 731.502 203.281 731.718 203.125 731.874C202.969 732.018 202.753 732.09 202.477 732.09C202.213 732.09 202.003 732.012 201.847 731.856C201.691 731.7 201.613 731.49 201.613 731.226V730.56C201.385 731.064 201.043 731.454 200.587 731.73C200.143 731.994 199.621 732.126 199.021 732.126C198.445 732.126 197.917 732.012 197.437 731.784C196.969 731.544 196.597 731.22 196.321 730.812C196.045 730.404 195.907 729.942 195.907 729.426C195.895 728.778 196.057 728.274 196.393 727.914C196.729 727.542 197.275 727.278 198.031 727.122C198.787 726.954 199.837 726.87 201.181 726.87H201.595V726.348C201.595 725.676 201.457 725.19 201.181 724.89C200.905 724.59 200.461 724.44 199.849 724.44C199.429 724.44 199.033 724.494 198.661 724.602C198.289 724.71 197.881 724.866 197.437 725.07C197.113 725.25 196.885 725.34 196.753 725.34C196.573 725.34 196.423 725.274 196.303 725.142C196.195 725.01 196.141 724.842 196.141 724.638C196.141 724.458 196.189 724.302 196.285 724.17C196.393 724.026 196.561 723.888 196.789 723.756C197.209 723.528 197.701 723.348 198.265 723.216C198.829 723.072 199.375 723 199.903 723ZM199.345 730.776C200.005 730.776 200.545 730.554 200.965 730.11C201.385 729.654 201.595 729.072 201.595 728.364V727.896H201.271C200.335 727.896 199.615 727.938 199.111 728.022C198.607 728.106 198.247 728.25 198.031 728.454C197.815 728.646 197.707 728.928 197.707 729.3C197.707 729.732 197.863 730.086 198.175 730.362C198.487 730.638 198.877 730.776 199.345 730.776Z" fill="white"/>
<defs>
<linearGradient id="paint0_linear" x1="400" y1="820" x2="-248.394" y2="228.399" gradientUnits="userSpaceOnUse">
<stop stop-color="#15B6D6"/>
<stop offset="1" stop-color="#15D6D6"/>
</linearGradient>
</defs>
</svg>
